<svg width="418" height="349" viewBox="0 0 418 349" fill="none" xmlns="http://www.w3.org/2000/svg">
<g filter="url(#filter0_ddddd_2754_592)">
<rect x="4" width="410" height="336" rx="20" fill="white"/>
</g>
<path d="M284.555 105.819C284.555 95.6402 276.303 87.3887 266.125 87.3887C255.946 87.3887 247.694 95.6402 247.694 105.819C247.694 115.998 255.946 124.249 266.125 124.249C276.303 124.249 284.555 115.998 284.555 105.819Z" fill="#FEF4FF"/>
<path d="M262.147 110.398H262.647V109.898H262.147V110.398ZM262.147 113.607H261.647C261.647 113.797 261.754 113.97 261.923 114.055C262.093 114.139 262.295 114.121 262.447 114.007L262.147 113.607ZM266.429 110.398V109.898H266.263L266.13 109.998L266.429 110.398ZM263.218 102.408H262.718V103.408H263.218V102.408ZM269.641 103.408H270.141V102.408H269.641V103.408ZM263.218 105.618H262.718V106.618H263.218V105.618ZM267.5 106.618H268V105.618H267.5V106.618ZM261.647 110.398V113.607H262.647V110.398H261.647ZM262.447 114.007L266.729 110.798L266.13 109.998L261.847 113.207L262.447 114.007ZM266.429 110.898H272.853V109.898H266.429V110.898ZM272.853 110.898C273.721 110.898 274.424 110.196 274.424 109.328H273.424C273.424 109.643 273.169 109.898 272.853 109.898V110.898ZM274.424 109.328V99.6988H273.424V109.328H274.424ZM274.424 99.6988C274.424 98.8307 273.721 98.1289 272.853 98.1289V99.1289C273.169 99.1289 273.424 99.3836 273.424 99.6988H274.424ZM272.853 98.1289H260.006V99.1289H272.853V98.1289ZM260.006 98.1289C259.138 98.1289 258.435 98.8307 258.435 99.6988H259.435C259.435 99.3836 259.69 99.1289 260.006 99.1289V98.1289ZM258.435 99.6988V109.328H259.435V99.6988H258.435ZM258.435 109.328C258.435 110.196 259.138 110.898 260.006 110.898V109.898C259.69 109.898 259.435 109.643 259.435 109.328H258.435ZM260.006 110.898H262.147V109.898H260.006V110.898ZM263.218 103.408H269.641V102.408H263.218V103.408ZM263.218 106.618H267.5V105.618H263.218V106.618Z" fill="black"/>
<path d="M287.306 105.689C287.306 93.9198 277.765 84.3789 265.996 84.3789C254.227 84.3789 244.686 93.9198 244.686 105.689C244.686 117.458 254.227 126.999 265.996 126.999C277.765 126.999 287.306 117.458 287.306 105.689Z" stroke="#14161D"/>
<path d="M234.434 36H199.646C197.802 36 196.306 37.4956 196.306 39.3405V74.1279C196.306 75.9728 197.802 77.4684 199.646 77.4684H234.434C236.279 77.4684 237.774 75.9728 237.774 74.1279V39.3405C237.774 37.4956 236.279 36 234.434 36Z" stroke="#14161D"/>
<path d="M169.128 60.623H134.341C132.496 60.623 131 62.1186 131 63.9636V98.7509C131 100.596 132.496 102.091 134.341 102.091H169.128C170.973 102.091 172.468 100.596 172.468 98.7509V63.9636C172.468 62.1186 170.973 60.623 169.128 60.623Z" stroke="#14161D"/>
<path d="M166.695 63.835H137.058C135.486 63.835 134.212 65.1092 134.212 66.6809V96.3184C134.212 97.8902 135.486 99.1644 137.058 99.1644H166.695C168.267 99.1644 169.541 97.8902 169.541 96.3184V66.6809C169.541 65.1092 168.267 63.835 166.695 63.835Z" fill="#FEF4FF"/>
<path d="M199.992 43.9476C199.992 41.5937 201.9 39.6855 204.254 39.6855H229.826C232.18 39.6855 234.088 41.5937 234.088 43.9476V58.8647C234.088 61.218 232.18 63.1267 229.826 63.1267H204.254C201.9 63.1267 199.992 61.218 199.992 58.8647V43.9476Z" fill="#FEF4FF"/>
<path d="M147.808 75.397V73.3629C147.808 72.614 148.415 72.0068 149.164 72.0068H151.198M157.979 72.0068H160.013C160.762 72.0068 161.369 72.614 161.369 73.3629V75.397M152.555 72.0068H156.623M157.979 85.5676H160.013C160.762 85.5676 161.369 84.9605 161.369 84.2115V82.1774M161.369 76.7531V80.8213M145.774 77.4312H143.74C142.991 77.4312 142.384 78.0383 142.384 78.7872V80.8213M142.384 87.6017V89.6359C142.384 90.3848 142.991 90.9919 143.74 90.9919H145.774M142.384 82.1774V86.2457M152.555 90.9919H154.589C155.338 90.9919 155.945 90.3848 155.945 89.6359V87.6017M147.13 90.9919H151.198M147.808 77.4312V85.5676H155.945V77.4312H147.808Z" stroke="black"/>
<path fill-rule="evenodd" clip-rule="evenodd" d="M213.577 71.1192C214.018 71.1192 214.376 70.7621 214.376 70.3209C214.376 69.8797 214.018 69.5215 213.577 69.5215C213.136 69.5215 212.778 69.8797 212.778 70.3209C212.778 70.7621 213.136 71.1192 213.577 71.1192ZM216.774 71.1192C217.215 71.1192 217.573 70.7621 217.573 70.3209C217.573 69.8797 217.215 69.5215 216.774 69.5215C216.332 69.5215 215.974 69.8797 215.974 70.3209C215.974 70.7621 216.332 71.1192 216.774 71.1192ZM220.769 70.3209C220.769 70.7621 220.411 71.1192 219.97 71.1192C219.529 71.1192 219.171 70.7621 219.171 70.3209C219.171 69.8797 219.529 69.5215 219.97 69.5215C220.411 69.5215 220.769 69.8797 220.769 70.3209Z" fill="#7F7ADA"/>
<path d="M224.499 46.0801L229.826 51.5375L224.499 56.7351" stroke="#3980FF" stroke-linecap="round" stroke-linejoin="round"/>
<path d="M209.582 46.0801L204.254 51.5375L209.582 56.7351" stroke="#3980FF" stroke-linecap="round" stroke-linejoin="round"/>
<path d="M216.464 84.9551C216.597 96.5697 214.448 113.384 237.268 113.643" stroke="#7F7ADA" stroke-linecap="round" stroke-dasharray="2 3"/>
<path d="M153.486 55.2705C153.616 50.0693 151.516 42.5395 173.824 42.4234H187.741" stroke="#3980FF" stroke-linecap="round" stroke-dasharray="2 3"/>
<path d="M128.533 175H130.953V162.96H136.813V175H139.233V160.8H128.533V175ZM142.433 178.96H144.673V173.82L144.713 173.8C145.433 174.68 146.453 175.16 147.773 175.16C150.493 175.16 152.513 173.18 152.513 170.16C152.513 167.22 150.493 165.1 147.793 165.1C146.513 165.1 145.433 165.56 144.713 166.4H144.673V165.24H142.433V178.96ZM147.433 173.12C145.833 173.12 144.573 171.94 144.573 170.18C144.573 168.44 145.733 167.12 147.413 167.12C148.973 167.12 150.233 168.3 150.233 170.18C150.233 171.9 149.073 173.12 147.433 173.12ZM159.395 175.16C162.395 175.16 164.515 173.1 164.515 170.14C164.515 167.14 162.395 165.1 159.395 165.1C156.315 165.1 154.275 167.26 154.275 170.14C154.275 173 156.315 175.16 159.395 175.16ZM159.395 173.12C157.715 173.12 156.555 171.8 156.555 170.14C156.555 168.44 157.695 167.12 159.395 167.12C160.995 167.12 162.235 168.34 162.235 170.14C162.235 171.9 160.975 173.12 159.395 173.12ZM175.767 170C175.767 167.16 173.907 165.1 171.167 165.1C168.307 165.1 166.267 167.12 166.267 170.12C166.267 173.18 168.367 175.16 171.327 175.16C173.427 175.16 174.647 174.38 175.467 173.32L173.907 171.98C173.407 172.6 172.607 173.12 171.447 173.12C169.927 173.12 168.867 172.28 168.587 170.86H175.707C175.727 170.7 175.767 170.36 175.767 170ZM171.147 167.12C172.427 167.12 173.227 167.92 173.507 169.1H168.627C168.947 167.82 169.907 167.12 171.147 167.12ZM178.077 175H180.317V172.32L181.717 170.76L184.677 175H187.297L183.317 169.44L187.077 165.24H184.337L180.357 169.84H180.317V165.24H178.077V175ZM191.253 175H193.493V167.2H196.533V165.24H188.213V167.2H191.253V175ZM198.565 175H200.725L205.225 168.64H205.265V175H207.505V165.24H205.385L200.845 171.8H200.805V165.24H198.565V175ZM210.421 178.96H212.661V173.82L212.701 173.8C213.421 174.68 214.441 175.16 215.761 175.16C218.481 175.16 220.501 173.18 220.501 170.16C220.501 167.22 218.481 165.1 215.781 165.1C214.501 165.1 213.421 165.56 212.701 166.4H212.661V165.24H210.421V178.96ZM215.421 173.12C213.821 173.12 212.561 171.94 212.561 170.18C212.561 168.44 213.721 167.12 215.401 167.12C216.961 167.12 218.221 168.3 218.221 170.18C218.221 171.9 217.061 173.12 215.421 173.12ZM227.383 175.16C230.383 175.16 232.503 173.1 232.503 170.14C232.503 167.14 230.383 165.1 227.383 165.1C224.303 165.1 222.263 167.26 222.263 170.14C222.263 173 224.303 175.16 227.383 175.16ZM227.383 173.12C225.703 173.12 224.543 171.8 224.543 170.14C224.543 168.44 225.683 167.12 227.383 167.12C228.983 167.12 230.223 168.34 230.223 170.14C230.223 171.9 228.963 173.12 227.383 173.12ZM234.835 175H239.695C242.495 175 243.415 173.82 243.415 172.22C243.415 170.96 242.595 170.14 241.315 169.88V169.86C242.455 169.48 242.915 168.74 242.915 167.62C242.915 166.02 241.715 165.24 239.515 165.24H234.835V175ZM237.035 169.18V167.1H239.415C240.115 167.1 240.715 167.34 240.715 168.12C240.715 168.86 240.275 169.18 239.195 169.18H237.035ZM237.035 173.14V170.92H239.615C240.595 170.92 241.135 171.24 241.135 171.98C241.135 172.8 240.635 173.14 239.535 173.14H237.035ZM249.795 175.16C251.155 175.16 252.195 174.64 252.895 173.7L252.935 173.72V175H255.075V165.24H252.835V166.42L252.795 166.44C252.095 165.56 251.015 165.1 249.775 165.1C247.095 165.1 245.075 167.22 245.075 170.16C245.075 173.18 247.095 175.16 249.795 175.16ZM250.155 173.12C248.495 173.12 247.355 171.9 247.355 170.18C247.355 168.3 248.595 167.12 250.155 167.12C251.755 167.12 252.935 168.44 252.935 170.18C252.935 171.94 251.675 173.12 250.155 173.12ZM257.901 175H260.141V171.16H264.421V175H266.661V165.24H264.421V169.26H260.141V165.24H257.901V175ZM269.581 175H271.741L276.241 168.64H276.281V175H278.521V165.24H276.401L271.861 171.8H271.821V165.24H269.581V175ZM290.357 170C290.357 167.16 288.497 165.1 285.757 165.1C282.897 165.1 280.857 167.12 280.857 170.12C280.857 173.18 282.957 175.16 285.917 175.16C288.017 175.16 289.237 174.38 290.057 173.32L288.497 171.98C287.997 172.6 287.197 173.12 286.037 173.12C284.517 173.12 283.457 172.28 283.177 170.86H290.297C290.317 170.7 290.357 170.36 290.357 170ZM285.737 167.12C287.017 167.12 287.817 167.92 288.097 169.1H283.217C283.537 167.82 284.497 167.12 285.737 167.12ZM90.4112 201H92.5712V194.98H92.6112L95.1312 199.36H96.5912L99.1112 194.94H99.1512V201H101.311V191.24H99.1312L95.8712 196.9H95.8312L92.5912 191.24H90.4112V201ZM108.779 201.16C111.779 201.16 113.899 199.1 113.899 196.14C113.899 193.14 111.779 191.1 108.779 191.1C105.699 191.1 103.659 193.26 103.659 196.14C103.659 199 105.699 201.16 108.779 201.16ZM108.779 199.12C107.099 199.12 105.939 197.8 105.939 196.14C105.939 194.44 107.079 193.12 108.779 193.12C110.379 193.12 111.619 194.34 111.619 196.14C111.619 197.9 110.359 199.12 108.779 199.12ZM121.191 201.16C123.951 201.16 126.051 199.02 126.051 196.06C126.051 193.2 124.011 191.2 121.591 191.2C119.811 191.2 118.791 192.04 118.131 193.1L118.091 193.08C118.351 190.66 118.591 189.34 121.411 188.82L125.371 188.08L124.751 186.12L120.971 186.8C116.851 187.54 116.071 190.3 116.071 194.7C116.071 198.24 117.411 201.16 121.191 201.16ZM121.091 199.14C119.471 199.14 118.331 197.72 118.331 195.94C118.351 194.92 119.131 193.22 121.071 193.22C122.551 193.22 123.771 194.4 123.771 196.06C123.771 197.96 122.491 199.14 121.091 199.14ZM128.341 201H130.501L135.001 194.64H135.041V201H137.281V191.24H135.161L130.621 197.8H130.581V191.24H128.341V201ZM141.696 191.24C141.696 192.66 141.676 194.94 141.496 196.44C141.316 197.98 140.796 199.06 139.776 199.06C139.556 199.06 139.436 199.04 139.296 199.02L139.156 200.94C139.416 201.04 139.856 201.1 140.236 201.1C142.296 201.1 143.236 199.56 143.576 197.18C143.736 196.02 143.816 194.66 143.876 193.2H146.516V201H148.756V191.24H141.696ZM151.681 201H155.581C158.601 201 159.681 199.58 159.681 197.62C159.681 195.62 158.681 194.24 155.681 194.24H153.921V191.24H151.681V201ZM153.921 199.1V196.1H155.601C156.781 196.1 157.401 196.58 157.401 197.64C157.401 198.62 156.781 199.1 155.601 199.1H153.921ZM161.817 201H164.057V197.16H168.337V201H170.577V191.24H168.337V195.26H164.057V191.24H161.817V201ZM178.037 201.16C181.037 201.16 183.157 199.1 183.157 196.14C183.157 193.14 181.037 191.1 178.037 191.1C174.957 191.1 172.917 193.26 172.917 196.14C172.917 199 174.957 201.16 178.037 201.16ZM178.037 199.12C176.357 199.12 175.197 197.8 175.197 196.14C175.197 194.44 176.337 193.12 178.037 193.12C179.637 193.12 180.877 194.34 180.877 196.14C180.877 197.9 179.617 199.12 178.037 199.12ZM185.489 201H187.729V193.2H192.189V191.24H185.489V201ZM198.506 201.16C201.506 201.16 203.626 199.1 203.626 196.14C203.626 193.14 201.506 191.1 198.506 191.1C195.426 191.1 193.386 193.26 193.386 196.14C193.386 199 195.426 201.16 198.506 201.16ZM198.506 199.12C196.826 199.12 195.666 197.8 195.666 196.14C195.666 194.44 196.806 193.12 198.506 193.12C200.106 193.12 201.346 194.34 201.346 196.14C201.346 197.9 200.086 199.12 198.506 199.12ZM211.31 201H213.55V193.2H217.55V201H219.79V191.24H211.31V201ZM222.716 204.96H224.956V199.82L224.996 199.8C225.716 200.68 226.736 201.16 228.056 201.16C230.776 201.16 232.796 199.18 232.796 196.16C232.796 193.22 230.776 191.1 228.076 191.1C226.796 191.1 225.716 191.56 224.996 192.4H224.956V191.24H222.716V204.96ZM227.716 199.12C226.116 199.12 224.856 197.94 224.856 196.18C224.856 194.44 226.016 193.12 227.696 193.12C229.256 193.12 230.516 194.3 230.516 196.18C230.516 197.9 229.356 199.12 227.716 199.12ZM235.138 201H237.298L241.798 194.64H241.838V201H244.078V191.24H241.958L237.418 197.8H237.378V191.24H235.138V201ZM248.493 191.24C248.493 192.66 248.473 194.94 248.293 196.44C248.113 197.98 247.593 199.06 246.573 199.06C246.353 199.06 246.233 199.04 246.093 199.02L245.953 200.94C246.213 201.04 246.653 201.1 247.033 201.1C249.093 201.1 250.033 199.56 250.373 197.18C250.533 196.02 250.613 194.66 250.673 193.2H253.313V201H255.553V191.24H248.493ZM263.018 201.16C266.018 201.16 268.138 199.1 268.138 196.14C268.138 193.14 266.018 191.1 263.018 191.1C259.938 191.1 257.898 193.26 257.898 196.14C257.898 199 259.938 201.16 263.018 201.16ZM263.018 199.12C261.338 199.12 260.178 197.8 260.178 196.14C260.178 194.44 261.318 193.12 263.018 193.12C264.618 193.12 265.858 194.34 265.858 196.14C265.858 197.9 264.598 199.12 263.018 199.12ZM268.705 201H271.225L274.005 196.8L275.125 198.08V201H277.285V198.12L278.365 196.84L281.105 201H283.685L279.945 195.66L283.485 191.24H280.925L277.305 195.9H277.285V191.24H275.125V195.8H275.085L271.445 191.24H268.805L272.425 195.66L268.705 201ZM293.765 196C293.765 193.16 291.905 191.1 289.165 191.1C286.305 191.1 284.265 193.12 284.265 196.12C284.265 199.18 286.365 201.16 289.325 201.16C291.425 201.16 292.645 200.38 293.465 199.32L291.905 197.98C291.405 198.6 290.605 199.12 289.445 199.12C287.925 199.12 286.865 198.28 286.585 196.86H293.705C293.725 196.7 293.765 196.36 293.765 196ZM289.145 193.12C290.425 193.12 291.225 193.92 291.505 195.1H286.625C286.945 193.82 287.905 193.12 289.145 193.12ZM296.075 201H298.315V197.16H302.595V201H304.835V191.24H302.595V195.26H298.315V191.24H296.075V201ZM307.755 201H309.915L314.415 194.64H314.455V201H316.695V191.24H314.575L310.035 197.8H309.995V191.24H307.755V201ZM323.25 191.24C320.55 191.24 319.25 192.58 319.25 194.54C319.25 195.94 320.03 196.98 321.43 197.44L318.83 201H321.37L323.71 197.7H325.35V201H327.59V191.24H323.25ZM325.35 195.86H323.15C321.97 195.86 321.53 195.3 321.53 194.54C321.53 193.6 322.11 193.14 323.23 193.14H325.35V195.86Z" fill="black"/>
<rect x="237.5" y="230.5" width="67" height="39" rx="19.5" stroke="black" stroke-opacity="0.25"/>
<path d="M265.995 255.5H267.3V246.035H270.525V244.85H262.815V246.035H265.995V255.5ZM275.024 255.59C277.514 255.59 278.894 254.27 278.894 252.47C278.894 250.925 277.919 250.13 276.644 249.86V249.845C277.829 249.44 278.369 248.435 278.369 247.385C278.369 245.765 277.109 244.745 275.069 244.745C273.704 244.745 272.234 245.225 271.514 245.9L272.234 246.905C273.014 246.29 273.929 245.975 274.919 245.975C276.284 245.975 277.034 246.56 277.034 247.61C277.034 248.81 276.074 249.41 274.829 249.41H273.209V250.55H274.919C276.659 250.55 277.529 251.285 277.529 252.47C277.529 253.685 276.554 254.375 275.054 254.375C273.764 254.375 272.669 253.91 271.934 252.935L271.094 253.94C272.024 255.02 273.404 255.59 275.024 255.59Z" fill="black"/>
<rect x="113.5" y="230.5" width="108" height="39" rx="19.5" stroke="black" stroke-opacity="0.25"/>
<path d="M150.478 254.736H148.91V244.64H142.126C142.11 246.768 142.03 248.528 141.758 250.16C141.486 251.824 141.022 253.328 140.222 254.736H138.686V258.24H139.854L139.918 256H149.246L149.31 258.24H150.478V254.736ZM143.086 250.608C143.358 249.152 143.47 247.584 143.486 245.904H147.518V254.736H141.726C142.366 253.648 142.814 252.192 143.086 250.608ZM152.318 256H153.566L157.95 250.208H157.982V256H159.278V248.208H158.046L153.646 254.128H153.614V248.208H152.318V256ZM164.316 256.096C166.46 256.096 167.644 255.184 167.644 253.84C167.644 252.736 166.828 252.112 165.932 251.904V251.888C166.764 251.6 167.244 250.912 167.244 250.096C167.244 248.848 166.092 248.112 164.268 248.112C162.972 248.112 161.932 248.512 161.404 248.816L161.9 249.872C162.524 249.52 163.34 249.28 164.284 249.28C165.276 249.28 165.948 249.6 165.948 250.416C165.948 251.136 165.42 251.52 164.396 251.52H162.844V252.56H164.604C165.676 252.56 166.316 252.928 166.316 253.68C166.316 254.496 165.548 254.944 164.316 254.944C163.228 254.944 162.252 254.624 161.532 254.112L161.132 255.28C161.756 255.68 162.796 256.096 164.316 256.096ZM172.785 256.096C174.049 256.096 175.009 255.52 175.569 254.592H175.585V256H176.833V248.208H175.537V249.584L175.505 249.6C174.945 248.656 173.937 248.112 172.785 248.112C170.577 248.112 168.993 249.856 168.993 252.16C168.993 254.528 170.641 256.096 172.785 256.096ZM172.977 254.912C171.377 254.912 170.305 253.728 170.305 252.16C170.305 250.432 171.505 249.296 172.977 249.296C174.513 249.296 175.585 250.56 175.585 252.16C175.585 253.808 174.417 254.912 172.977 254.912ZM182.729 247.136C183.945 247.136 185.033 246.56 185.273 245.008L184.121 244.8C184.073 245.52 183.673 246.288 182.729 246.288C181.801 246.288 181.401 245.52 181.337 244.8L180.185 245.008C180.425 246.56 181.513 247.136 182.729 247.136ZM179.161 256H180.409L184.793 250.208H184.825V256H186.121V248.208H184.889L180.489 254.128H180.457V248.208H179.161V256ZM188.552 256H189.848V252.752H194.056V256H195.352V248.208H194.056V251.632H189.848V248.208H188.552V256Z" fill="black"/>
<defs>
<filter id="filter0_ddddd_2754_592" x="0" y="0" width="418" height="349" filterUnits="userSpaceOnUse" color-interpolation-filters="sRGB">
<feFlood flood-opacity="0" result="BackgroundImageFix"/>
<feColorMatrix in="SourceAlpha" type="matrix" values="0 0 0 0 0 0 0 0 0 0 0 0 0 0 0 0 0 0 127 0" result="hardAlpha"/>
<feOffset/>
<feColorMatrix type="matrix" values="0 0 0 0 0 0 0 0 0 0 0 0 0 0 0 0 0 0 0.09 0"/>
<feBlend mode="normal" in2="BackgroundImageFix" result="effect1_dropShadow_2754_592"/>
<feColorMatrix in="SourceAlpha" type="matrix" values="0 0 0 0 0 0 0 0 0 0 0 0 0 0 0 0 0 0 127 0" result="hardAlpha"/>
<feOffset dy="1"/>
<feGaussianBlur stdDeviation="0.5"/>
<feColorMatrix type="matrix" values="0 0 0 0 0 0 0 0 0 0 0 0 0 0 0 0 0 0 0.09 0"/>
<feBlend mode="normal" in2="effect1_dropShadow_2754_592" result="effect2_dropShadow_2754_592"/>
<feColorMatrix in="SourceAlpha" type="matrix" values="0 0 0 0 0 0 0 0 0 0 0 0 0 0 0 0 0 0 127 0" result="hardAlpha"/>
<feOffset dy="2"/>
<feGaussianBlur stdDeviation="1"/>
<feColorMatrix type="matrix" values="0 0 0 0 0 0 0 0 0 0 0 0 0 0 0 0 0 0 0.08 0"/>
<feBlend mode="normal" in2="effect2_dropShadow_2754_592" result="effect3_dropShadow_2754_592"/>
<feColorMatrix in="SourceAlpha" type="matrix" values="0 0 0 0 0 0 0 0 0 0 0 0 0 0 0 0 0 0 127 0" result="hardAlpha"/>
<feOffset dy="5"/>
<feGaussianBlur stdDeviation="1.5"/>
<feColorMatrix type="matrix" values="0 0 0 0 0 0 0 0 0 0 0 0 0 0 0 0 0 0 0.05 0"/>
<feBlend mode="normal" in2="effect3_dropShadow_2754_592" result="effect4_dropShadow_2754_592"/>
<feColorMatrix in="SourceAlpha" type="matrix" values="0 0 0 0 0 0 0 0 0 0 0 0 0 0 0 0 0 0 127 0" result="hardAlpha"/>
<feOffset dy="9"/>
<feGaussianBlur stdDeviation="2"/>
<feColorMatrix type="matrix" values="0 0 0 0 0 0 0 0 0 0 0 0 0 0 0 0 0 0 0.01 0"/>
<feBlend mode="normal" in2="effect4_dropShadow_2754_592" result="effect5_dropShadow_2754_592"/>
<feBlend mode="normal" in="SourceGraphic" in2="effect5_dropShadow_2754_592" result="shape"/>
</filter>
</defs>
</svg>
