<svg width="137" height="9" viewBox="0 0 137 9" fill="none" xmlns="http://www.w3.org/2000/svg">
<path d="M1.064 7H2.198V1.19H5.726V7H6.86V0.182H1.064V7ZM12.0877 7.084C14.1037 7.084 15.6017 5.67 15.6017 3.598C15.6017 1.526 14.1037 0.0979996 12.0877 0.0979996C9.97369 0.0979996 8.55969 1.638 8.55969 3.598C8.55969 5.558 9.97369 7.084 12.0877 7.084ZM12.0877 6.048C10.6737 6.048 9.72169 4.956 9.72169 3.598C9.72169 2.24 10.6597 1.134 12.0877 1.134C13.4037 1.134 14.4397 2.142 14.4397 3.598C14.4397 5.054 13.3897 6.048 12.0877 6.048ZM17.2925 7H18.4265V5.208L19.7425 3.808L22.0945 7H23.4385L20.5545 3.122L23.2845 0.182H21.8845L18.4545 3.906H18.4265V0.182H17.2925V7ZM27.3403 7.084C28.4463 7.084 29.2863 6.58 29.7763 5.768H29.7903V7H30.8823V0.182H29.7483V1.386L29.7203 1.4C29.2303 0.574 28.3483 0.0979996 27.3403 0.0979996C25.4083 0.0979996 24.0223 1.624 24.0223 3.64C24.0223 5.712 25.4642 7.084 27.3403 7.084ZM27.5083 6.048C26.1083 6.048 25.1703 5.012 25.1703 3.64C25.1703 2.128 26.2203 1.134 27.5083 1.134C28.8523 1.134 29.7903 2.24 29.7903 3.64C29.7903 5.082 28.7683 6.048 27.5083 6.048ZM35.2015 7.084C37.0775 7.084 38.1135 6.286 38.1135 5.11C38.1135 4.144 37.3995 3.598 36.6155 3.416V3.402C37.3435 3.15 37.7635 2.548 37.7635 1.834C37.7635 0.742 36.7555 0.0979996 35.1595 0.0979996C34.0255 0.0979996 33.1155 0.448 32.6535 0.714L33.0875 1.638C33.6335 1.33 34.3475 1.12 35.1735 1.12C36.0415 1.12 36.6295 1.4 36.6295 2.114C36.6295 2.744 36.1675 3.08 35.2715 3.08H33.9135V3.99H35.4535C36.3915 3.99 36.9515 4.312 36.9515 4.97C36.9515 5.684 36.2795 6.076 35.2015 6.076C34.2495 6.076 33.3955 5.796 32.7655 5.348L32.4155 6.37C32.9615 6.72 33.8715 7.084 35.2015 7.084ZM42.6117 7.084C43.7177 7.084 44.5577 6.58 45.0477 5.768H45.0617V7H46.1537V0.182H45.0197V1.386L44.9917 1.4C44.5017 0.574 43.6197 0.0979996 42.6117 0.0979996C40.6797 0.0979996 39.2937 1.624 39.2937 3.64C39.2937 5.712 40.7357 7.084 42.6117 7.084ZM42.7797 6.048C41.3797 6.048 40.4417 5.012 40.4417 3.64C40.4417 2.128 41.4917 1.134 42.7797 1.134C44.1237 1.134 45.0617 2.24 45.0617 3.64C45.0617 5.082 44.0397 6.048 42.7797 6.048ZM49.773 7H50.907V1.19H53.189V0.182H47.491V1.19H49.773V7ZM54.6031 7H57.2911C59.2371 7 60.0071 6.09 60.0071 4.732C60.0071 3.36 59.2931 2.464 57.3891 2.464H55.7371V0.182H54.6031V7ZM55.7371 6.02V3.416H57.3471C58.3551 3.416 58.8451 3.864 58.8451 4.746C58.8451 5.572 58.3411 6.02 57.3051 6.02H55.7371ZM65.3492 7H66.4832V1.19H70.0112V7H71.1452V0.182H65.3492V7ZM76.3728 7.084C78.3888 7.084 79.8868 5.67 79.8868 3.598C79.8868 1.526 78.3888 0.0979996 76.3728 0.0979996C74.2588 0.0979996 72.8448 1.638 72.8448 3.598C72.8448 5.558 74.2588 7.084 76.3728 7.084ZM76.3728 6.048C74.9588 6.048 74.0068 4.956 74.0068 3.598C74.0068 2.24 74.9448 1.134 76.3728 1.134C77.6888 1.134 78.7248 2.142 78.7248 3.598C78.7248 5.054 77.6748 6.048 76.3728 6.048ZM82.2188 0.182C82.1908 1.344 82.1488 2.898 82.0368 3.962C81.8828 5.306 81.4348 6.006 80.7348 6.006C80.5948 6.006 80.4968 5.992 80.4128 5.978L80.3288 6.958C80.4688 7.014 80.6928 7.056 80.9308 7.056C82.1488 7.056 82.8488 6.188 83.1008 4.326C83.2128 3.43 83.2688 2.31 83.3248 1.19H85.7328V7H86.8668V0.182H82.2188ZM89.0015 7H90.1355V4.158H93.8175V7H94.9515V0.182H93.8175V3.178H90.1355V0.182H89.0015V7ZM100.176 7.084C102.192 7.084 103.69 5.67 103.69 3.598C103.69 1.526 102.192 0.0979996 100.176 0.0979996C98.0616 0.0979996 96.6476 1.638 96.6476 3.598C96.6476 5.558 98.0616 7.084 100.176 7.084ZM100.176 6.048C98.7616 6.048 97.8096 4.956 97.8096 3.598C97.8096 2.24 98.7476 1.134 100.176 1.134C101.492 1.134 102.528 2.142 102.528 3.598C102.528 5.054 101.478 6.048 100.176 6.048ZM108.348 7.084C109.678 7.084 110.588 6.58 111.162 5.894L110.378 5.18C109.958 5.698 109.244 6.048 108.432 6.048C107.046 6.048 106.108 5.054 106.108 3.598C106.108 2.156 107.046 1.134 108.446 1.134C109.258 1.134 109.93 1.498 110.364 2.002L111.134 1.316C110.462 0.518 109.412 0.0979996 108.39 0.0979996C106.36 0.0979996 104.946 1.54 104.946 3.598C104.946 5.67 106.36 7.084 108.348 7.084ZM114.263 7H115.397V1.19H117.679V0.182H111.981V1.19H114.263V7ZM119.093 7H121.781C123.727 7 124.497 6.09 124.497 4.732C124.497 3.36 123.783 2.464 121.879 2.464H120.227V0.182H119.093V7ZM120.227 6.02V3.416H121.837C122.845 3.416 123.335 3.864 123.335 4.746C123.335 5.572 122.831 6.02 121.795 6.02H120.227ZM132.017 0.0979996C130.113 0.0979996 128.825 1.4 128.643 3.178H127.131V0.182H125.997V7H127.131V4.158H128.671C128.895 5.866 130.155 7.084 132.017 7.084C133.977 7.084 135.419 5.67 135.419 3.598C135.419 1.526 133.977 0.0979996 132.017 0.0979996ZM132.017 6.048C130.659 6.048 129.763 4.984 129.763 3.598C129.763 2.212 130.645 1.134 132.017 1.134C133.277 1.134 134.271 2.142 134.271 3.598C134.271 5.054 133.277 6.048 132.017 6.048Z" fill="black" fill-opacity="0.51"/>
<path d="M0 8.162H136.035V8.694H0V8.162Z" fill="black" fill-opacity="0.51"/>
</svg>
