<svg width="418" height="349" viewBox="0 0 418 349" fill="none" xmlns="http://www.w3.org/2000/svg">
<g filter="url(#filter0_ddddd_2754_554)">
<rect x="4" width="410" height="336" rx="20" fill="white"/>
</g>
<path d="M217.637 38H182.39C178.309 38 175 41.3088 175 45.3905V120.432C175 124.514 178.309 127.822 182.39 127.822H217.637C221.719 127.822 225.028 124.514 225.028 120.432V45.3905C225.028 41.3088 221.719 38 217.637 38Z" stroke="#14161D"/>
<path fill-rule="evenodd" clip-rule="evenodd" d="M189 76.9444C189 76.4228 189.448 76 190 76H220C220.552 76 221 76.4228 221 76.9444C221 77.466 220.552 77.8889 220 77.8889H190C189.448 77.8889 189 77.466 189 76.9444ZM191 80.7222C191 80.2006 191.448 79.7778 192 79.7778H208C208.552 79.7778 209 80.2006 209 80.7222C209 81.2438 208.552 81.6667 208 81.6667H192C191.448 81.6667 191 81.2438 191 80.7222ZM190 83.5556C189.448 83.5556 189 83.9784 189 84.5C189 85.0216 189.448 85.4444 190 85.4444H218C218.552 85.4444 219 85.0216 219 84.5C219 83.9784 218.552 83.5556 218 83.5556H190ZM191 88.2778C191 87.7562 191.448 87.3333 192 87.3333H204C204.552 87.3333 205 87.7562 205 88.2778C205 88.7994 204.552 89.2222 204 89.2222H192C191.448 89.2222 191 88.7994 191 88.2778ZM192 91.1111C191.448 91.1111 191 91.534 191 92.0556C191 92.5772 191.448 93 192 93H204C204.552 93 205 92.5772 205 92.0556C205 91.534 204.552 91.1111 204 91.1111H192Z" fill="#E4E8F4"/>
<path d="M180.872 84.4278C180.538 84.4278 180.267 84.6832 180.267 84.9992C180.267 85.3152 180.538 85.5706 180.872 85.5706C181.576 85.5706 182.131 85.7849 182.568 86.2255C183.845 87.514 183.674 90.218 183.671 90.2848V97.5704C183.671 99.4052 184.21 100.821 185.273 101.774C186.549 102.919 188.16 103 188.588 103C188.648 103 188.684 102.998 188.694 102.998C189.028 102.982 189.284 102.713 189.267 102.397C189.249 102.081 188.959 101.837 188.631 101.856C188.615 101.863 187.188 101.915 186.106 100.945C185.292 100.215 184.881 99.0795 184.881 97.5704L184.879 90.3231C184.889 90.1922 185.09 87.098 183.454 85.4472C183.285 85.2769 183.103 85.1266 182.909 84.9998C183.103 84.8718 183.285 84.7232 183.454 84.5518C185.09 82.8987 184.889 79.8061 184.881 79.7141V72.4286C184.881 70.9252 185.29 69.7932 186.097 69.0623C187.166 68.0944 188.612 68.1401 188.634 68.1424C188.967 68.1618 189.249 67.9161 189.267 67.6012C189.283 67.2858 189.027 67.0178 188.694 67.0007C188.61 67.0018 186.727 66.9207 185.275 68.2252C184.21 69.1795 183.672 70.5943 183.672 72.4286L183.673 79.7524C183.727 80.505 183.634 82.6958 182.571 83.7706C182.132 84.2129 181.577 84.4278 180.872 84.4278Z" fill="#3980FF"/>
<path d="M186.41 38H213.618C213.342 39.9285 211.683 41.411 209.678 41.411H190.35C188.345 41.411 186.686 39.9285 186.41 38Z" fill="#14161D" stroke="#14161D"/>
<path d="M96.4236 175H98.8436V169.94H101.284C104.344 169.94 106.424 168.48 106.424 165.4C106.424 162.76 104.964 160.8 101.564 160.8H96.4236V175ZM98.8436 167.76V162.96H101.224C102.964 162.96 103.924 163.86 103.924 165.36C103.924 166.76 103.024 167.76 101.044 167.76H98.8436ZM112.646 175.16C114.006 175.16 115.046 174.64 115.746 173.7L115.786 173.72V175H117.926V165.24H115.686V166.42L115.646 166.44C114.946 165.56 113.866 165.1 112.626 165.1C109.946 165.1 107.926 167.22 107.926 170.16C107.926 173.18 109.946 175.16 112.646 175.16ZM113.006 173.12C111.346 173.12 110.206 171.9 110.206 170.18C110.206 168.3 111.446 167.12 113.006 167.12C114.606 167.12 115.786 168.44 115.786 170.18C115.786 171.94 114.526 173.12 113.006 173.12ZM124.053 175.16C126.733 175.16 128.313 174.04 128.313 172.3C128.313 170.96 127.333 170.14 126.173 169.84V169.82C127.253 169.42 127.813 168.52 127.813 167.56C127.813 166 126.333 165.1 123.953 165.1C122.353 165.1 120.953 165.64 120.373 165.96L121.213 167.74C122.013 167.32 123.053 167.08 123.993 167.08C124.913 167.08 125.593 167.3 125.593 168.16C125.593 168.86 125.093 169.2 123.933 169.2H122.193V170.96H124.313C125.373 170.96 126.033 171.24 126.033 171.98C126.033 172.82 125.213 173.18 124.053 173.18C122.973 173.18 121.733 172.9 120.753 172.2L120.073 174.16C120.853 174.68 122.233 175.16 124.053 175.16ZM130.577 178.96H132.817V173.82L132.857 173.8C133.577 174.68 134.597 175.16 135.917 175.16C138.637 175.16 140.657 173.18 140.657 170.16C140.657 167.22 138.637 165.1 135.937 165.1C134.657 165.1 133.577 165.56 132.857 166.4H132.817V165.24H130.577V178.96ZM135.577 173.12C133.977 173.12 132.717 171.94 132.717 170.18C132.717 168.44 133.877 167.12 135.557 167.12C137.117 167.12 138.377 168.3 138.377 170.18C138.377 171.9 137.217 173.12 135.577 173.12ZM147.119 175.16C148.479 175.16 149.519 174.64 150.219 173.7L150.259 173.72V175H152.399V165.24H150.159V166.42L150.119 166.44C149.419 165.56 148.339 165.1 147.099 165.1C144.419 165.1 142.399 167.22 142.399 170.16C142.399 173.18 144.419 175.16 147.119 175.16ZM147.479 173.12C145.819 173.12 144.679 171.9 144.679 170.18C144.679 168.3 145.919 167.12 147.479 167.12C149.079 167.12 150.259 168.44 150.259 170.18C150.259 171.94 148.999 173.12 147.479 173.12ZM160.186 175.16C162.946 175.16 165.046 173.02 165.046 170.06C165.046 167.2 163.006 165.2 160.586 165.2C158.806 165.2 157.786 166.04 157.126 167.1L157.086 167.08C157.346 164.66 157.586 163.34 160.406 162.82L164.366 162.08L163.746 160.12L159.966 160.8C155.846 161.54 155.066 164.3 155.066 168.7C155.066 172.24 156.406 175.16 160.186 175.16ZM160.086 173.14C158.466 173.14 157.326 171.72 157.326 169.94C157.346 168.92 158.126 167.22 160.066 167.22C161.546 167.22 162.766 168.4 162.766 170.06C162.766 171.96 161.486 173.14 160.086 173.14ZM171.875 175.16C174.875 175.16 176.995 173.1 176.995 170.14C176.995 167.14 174.875 165.1 171.875 165.1C168.795 165.1 166.755 167.26 166.755 170.14C166.755 173 168.795 175.16 171.875 175.16ZM171.875 173.12C170.195 173.12 169.035 171.8 169.035 170.14C169.035 168.44 170.175 167.12 171.875 167.12C173.475 167.12 174.715 168.34 174.715 170.14C174.715 171.9 173.455 173.12 171.875 173.12ZM181.175 175H183.415V167.2H186.455V165.24H178.135V167.2H181.175V175ZM188.487 175H190.727V172.32L192.127 170.76L195.087 175H197.707L193.727 169.44L197.487 165.24H194.747L190.767 169.84H190.727V165.24H188.487V175ZM203.076 175.16C204.436 175.16 205.476 174.64 206.176 173.7L206.216 173.72V175H208.356V165.24H206.116V166.42L206.076 166.44C205.376 165.56 204.296 165.1 203.056 165.1C200.376 165.1 198.356 167.22 198.356 170.16C198.356 173.18 200.376 175.16 203.076 175.16ZM203.436 173.12C201.776 173.12 200.636 171.9 200.636 170.18C200.636 168.3 201.876 167.12 203.436 167.12C205.036 167.12 206.216 168.44 206.216 170.18C206.216 171.94 204.956 173.12 203.436 173.12ZM216.534 175H218.694V168.98H218.734L221.254 173.36H222.714L225.234 168.94H225.274V175H227.434V165.24H225.254L221.994 170.9H221.954L218.714 165.24H216.534V175ZM234.902 175.16C237.902 175.16 240.022 173.1 240.022 170.14C240.022 167.14 237.902 165.1 234.902 165.1C231.822 165.1 229.782 167.26 229.782 170.14C229.782 173 231.822 175.16 234.902 175.16ZM234.902 173.12C233.222 173.12 232.062 171.8 232.062 170.14C232.062 168.44 233.202 167.12 234.902 167.12C236.502 167.12 237.742 168.34 237.742 170.14C237.742 171.9 236.482 173.12 234.902 173.12ZM247.315 175.16C250.075 175.16 252.175 173.02 252.175 170.06C252.175 167.2 250.135 165.2 247.715 165.2C245.935 165.2 244.915 166.04 244.255 167.1L244.215 167.08C244.475 164.66 244.715 163.34 247.535 162.82L251.495 162.08L250.875 160.12L247.095 160.8C242.975 161.54 242.195 164.3 242.195 168.7C242.195 172.24 243.535 175.16 247.315 175.16ZM247.215 173.14C245.595 173.14 244.455 171.72 244.455 169.94C244.475 168.92 245.255 167.22 247.195 167.22C248.675 167.22 249.895 168.4 249.895 170.06C249.895 171.96 248.615 173.14 247.215 173.14ZM254.464 175H256.624L261.124 168.64H261.164V175H263.404V165.24H261.284L256.744 171.8H256.704V165.24H254.464V175ZM267.819 165.24C267.819 166.66 267.799 168.94 267.619 170.44C267.439 171.98 266.919 173.06 265.899 173.06C265.679 173.06 265.559 173.04 265.419 173.02L265.279 174.94C265.539 175.04 265.979 175.1 266.359 175.1C268.419 175.1 269.359 173.56 269.699 171.18C269.859 170.02 269.939 168.66 269.999 167.2H272.639V175H274.879V165.24H267.819ZM277.804 175H281.704C284.724 175 285.804 173.58 285.804 171.62C285.804 169.62 284.804 168.24 281.804 168.24H280.044V165.24H277.804V175ZM280.044 173.1V170.1H281.724C282.904 170.1 283.524 170.58 283.524 171.64C283.524 172.62 282.904 173.1 281.724 173.1H280.044ZM287.94 175H290.18V171.16H294.46V175H296.7V165.24H294.46V169.26H290.18V165.24H287.94V175ZM299.62 175H303.32C306.34 175 307.42 173.58 307.42 171.62C307.42 169.62 306.42 168.24 303.42 168.24H301.86V165.24H299.62V175ZM309.06 175H311.3V165.24H309.06V175ZM301.86 173.1V170.1H303.34C304.52 170.1 305.14 170.58 305.14 171.64C305.14 172.62 304.52 173.1 303.34 173.1H301.86ZM313.31 175H315.79L318.03 171.92H318.05L320.27 175H322.77L319.31 170.04L322.71 165.24H320.13L318.03 168.32H317.99L315.93 165.24H313.33L316.75 170.02L313.31 175ZM150.382 201H152.622V193.2H156.622V201H158.862V191.24H150.382V201ZM161.788 204.96H164.028V199.82L164.068 199.8C164.788 200.68 165.808 201.16 167.128 201.16C169.848 201.16 171.868 199.18 171.868 196.16C171.868 193.22 169.848 191.1 167.148 191.1C165.868 191.1 164.788 191.56 164.068 192.4H164.028V191.24H161.788V204.96ZM166.788 199.12C165.188 199.12 163.928 197.94 163.928 196.18C163.928 194.44 165.088 193.12 166.768 193.12C168.328 193.12 169.588 194.3 169.588 196.18C169.588 197.9 168.428 199.12 166.788 199.12ZM174.21 201H176.37L180.87 194.64H180.91V201H183.15V191.24H181.03L176.49 197.8H176.45V191.24H174.21V201ZM187.565 191.24C187.565 192.66 187.545 194.94 187.365 196.44C187.185 197.98 186.665 199.06 185.645 199.06C185.425 199.06 185.305 199.04 185.165 199.02L185.025 200.94C185.285 201.04 185.725 201.1 186.105 201.1C188.165 201.1 189.105 199.56 189.445 197.18C189.605 196.02 189.685 194.66 189.745 193.2H192.385V201H194.625V191.24H187.565ZM202.09 201.16C205.09 201.16 207.21 199.1 207.21 196.14C207.21 193.14 205.09 191.1 202.09 191.1C199.01 191.1 196.97 193.26 196.97 196.14C196.97 199 199.01 201.16 202.09 201.16ZM202.09 199.12C200.41 199.12 199.25 197.8 199.25 196.14C199.25 194.44 200.39 193.12 202.09 193.12C203.69 193.12 204.93 194.34 204.93 196.14C204.93 197.9 203.67 199.12 202.09 199.12ZM207.778 201H210.298L213.078 196.8L214.198 198.08V201H216.358V198.12L217.438 196.84L220.178 201H222.758L219.018 195.66L222.558 191.24H219.998L216.378 195.9H216.358V191.24H214.198V195.8H214.158L210.518 191.24H207.878L211.498 195.66L207.778 201ZM232.837 196C232.837 193.16 230.977 191.1 228.237 191.1C225.377 191.1 223.337 193.12 223.337 196.12C223.337 199.18 225.437 201.16 228.397 201.16C230.497 201.16 231.717 200.38 232.537 199.32L230.977 197.98C230.477 198.6 229.677 199.12 228.517 199.12C226.997 199.12 225.937 198.28 225.657 196.86H232.777C232.797 196.7 232.837 196.36 232.837 196ZM228.217 193.12C229.497 193.12 230.297 193.92 230.577 195.1H225.697C226.017 193.82 226.977 193.12 228.217 193.12ZM235.148 201H237.388V197.16H241.668V201H243.908V191.24H241.668V195.26H237.388V191.24H235.148V201ZM246.827 201H248.987L253.487 194.64H253.527V201H255.767V191.24H253.647L249.107 197.8H249.067V191.24H246.827V201ZM263.303 189.98C264.843 189.98 266.323 189.34 266.723 187.24L264.763 186.88C264.703 187.62 264.343 188.58 263.303 188.58C262.283 188.58 261.903 187.62 261.843 186.88L259.883 187.24C260.283 189.34 261.763 189.98 263.303 189.98ZM258.683 201H260.843L265.343 194.64H265.383V201H267.623V191.24H265.503L260.963 197.8H260.923V191.24H258.683V201Z" fill="black"/>
<rect x="202.5" y="230.5" width="104" height="39" rx="19.5" stroke="black" stroke-opacity="0.25"/>
<path d="M227.475 255.5H228.84L229.785 252.905H234.54L235.5 255.5H236.865L232.815 244.85H231.51L227.475 255.5ZM230.205 251.765L232.14 246.425H232.17L234.135 251.765H230.205ZM238.377 255.5H239.592V251.855C239.592 250.205 240.492 249.215 241.872 249.215C242.937 249.215 243.672 249.8 243.672 251.51V255.5H244.887V251.165C244.887 249.08 243.837 248.105 242.262 248.105C241.137 248.105 240.177 248.63 239.607 249.515H239.592V248.195H238.377V255.5ZM250.124 255.59C251.309 255.59 252.239 255.035 252.764 254.15H252.779V255.5H253.949V244.46H252.734V249.5H252.719C252.164 248.615 251.219 248.105 250.109 248.105C248.054 248.105 246.539 249.74 246.539 251.9C246.539 254.12 248.099 255.59 250.124 255.59ZM250.289 254.48C248.804 254.48 247.784 253.37 247.784 251.9C247.784 250.28 248.909 249.215 250.304 249.215C251.774 249.215 252.779 250.4 252.779 251.9C252.779 253.445 251.669 254.48 250.289 254.48ZM256.219 255.5H257.434V251.975C257.434 250.505 258.259 249.44 259.654 249.44C259.774 249.44 259.954 249.455 260.134 249.47V248.12C260.029 248.105 259.939 248.105 259.834 248.105C258.829 248.105 257.989 248.645 257.464 249.53H257.434V248.195H256.219V255.5ZM264.587 255.59C266.747 255.59 268.352 254.075 268.352 251.855C268.352 249.635 266.747 248.105 264.587 248.105C262.322 248.105 260.807 249.755 260.807 251.855C260.807 253.955 262.322 255.59 264.587 255.59ZM264.587 254.48C263.072 254.48 262.052 253.31 262.052 251.855C262.052 250.4 263.057 249.215 264.587 249.215C265.997 249.215 267.107 250.295 267.107 251.855C267.107 253.415 265.982 254.48 264.587 254.48ZM270.869 246.86C271.364 246.86 271.754 246.47 271.754 245.99C271.754 245.51 271.364 245.12 270.869 245.12C270.374 245.12 269.984 245.51 269.984 245.99C269.984 246.47 270.374 246.86 270.869 246.86ZM270.254 255.5H271.469V248.195H270.254V255.5ZM276.946 255.59C278.131 255.59 279.061 255.035 279.586 254.15H279.601V255.5H280.771V244.46H279.556V249.5H279.541C278.986 248.615 278.041 248.105 276.931 248.105C274.876 248.105 273.361 249.74 273.361 251.9C273.361 254.12 274.921 255.59 276.946 255.59ZM277.111 254.48C275.626 254.48 274.606 253.37 274.606 251.9C274.606 250.28 275.731 249.215 277.126 249.215C278.596 249.215 279.601 250.4 279.601 251.9C279.601 253.445 278.491 254.48 277.111 254.48Z" fill="black"/>
<rect x="110.5" y="230.5" width="76" height="39" rx="19.5" stroke="black" stroke-opacity="0.25"/>
<path d="M137.304 246.784C137.832 246.784 138.248 246.368 138.248 245.856C138.248 245.344 137.832 244.928 137.304 244.928C136.776 244.928 136.36 245.344 136.36 245.856C136.36 246.368 136.776 246.784 137.304 246.784ZM136.648 256H137.944V248.208H136.648V256ZM145.882 256.096C149.066 256.096 151.546 253.776 151.546 250.32C151.546 246.848 149.066 244.528 145.882 244.528C142.57 244.528 140.17 246.944 140.17 250.32C140.17 253.696 142.57 256.096 145.882 256.096ZM145.882 254.784C143.418 254.784 141.626 252.88 141.626 250.32C141.626 247.744 143.418 245.84 145.882 245.84C148.234 245.84 150.09 247.68 150.09 250.32C150.09 252.944 148.234 254.784 145.882 254.784ZM157.071 256.096C159.055 256.096 160.879 254.976 160.879 252.896C160.879 250.768 159.263 250.256 157.359 249.504C155.935 248.96 154.911 248.56 154.927 247.472C154.943 246.384 155.887 245.808 156.959 245.808C157.807 245.808 158.783 246.208 159.695 246.96L160.543 245.856C159.471 244.992 158.223 244.528 156.959 244.528C155.007 244.528 153.487 245.84 153.487 247.536C153.487 249.536 155.199 250.256 156.879 250.88C158.399 251.456 159.423 251.792 159.423 253.056C159.423 254.16 158.479 254.8 157.087 254.8C155.983 254.8 154.767 254.288 153.951 253.264L153.055 254.336C154.191 255.552 155.647 256.096 157.071 256.096Z" fill="black"/>
<defs>
<filter id="filter0_ddddd_2754_554" x="0" y="0" width="418" height="349" filterUnits="userSpaceOnUse" color-interpolation-filters="sRGB">
<feFlood flood-opacity="0" result="BackgroundImageFix"/>
<feColorMatrix in="SourceAlpha" type="matrix" values="0 0 0 0 0 0 0 0 0 0 0 0 0 0 0 0 0 0 127 0" result="hardAlpha"/>
<feOffset/>
<feColorMatrix type="matrix" values="0 0 0 0 0 0 0 0 0 0 0 0 0 0 0 0 0 0 0.09 0"/>
<feBlend mode="normal" in2="BackgroundImageFix" result="effect1_dropShadow_2754_554"/>
<feColorMatrix in="SourceAlpha" type="matrix" values="0 0 0 0 0 0 0 0 0 0 0 0 0 0 0 0 0 0 127 0" result="hardAlpha"/>
<feOffset dy="1"/>
<feGaussianBlur stdDeviation="0.5"/>
<feColorMatrix type="matrix" values="0 0 0 0 0 0 0 0 0 0 0 0 0 0 0 0 0 0 0.09 0"/>
<feBlend mode="normal" in2="effect1_dropShadow_2754_554" result="effect2_dropShadow_2754_554"/>
<feColorMatrix in="SourceAlpha" type="matrix" values="0 0 0 0 0 0 0 0 0 0 0 0 0 0 0 0 0 0 127 0" result="hardAlpha"/>
<feOffset dy="2"/>
<feGaussianBlur stdDeviation="1"/>
<feColorMatrix type="matrix" values="0 0 0 0 0 0 0 0 0 0 0 0 0 0 0 0 0 0 0.08 0"/>
<feBlend mode="normal" in2="effect2_dropShadow_2754_554" result="effect3_dropShadow_2754_554"/>
<feColorMatrix in="SourceAlpha" type="matrix" values="0 0 0 0 0 0 0 0 0 0 0 0 0 0 0 0 0 0 127 0" result="hardAlpha"/>
<feOffset dy="5"/>
<feGaussianBlur stdDeviation="1.5"/>
<feColorMatrix type="matrix" values="0 0 0 0 0 0 0 0 0 0 0 0 0 0 0 0 0 0 0.05 0"/>
<feBlend mode="normal" in2="effect3_dropShadow_2754_554" result="effect4_dropShadow_2754_554"/>
<feColorMatrix in="SourceAlpha" type="matrix" values="0 0 0 0 0 0 0 0 0 0 0 0 0 0 0 0 0 0 127 0" result="hardAlpha"/>
<feOffset dy="9"/>
<feGaussianBlur stdDeviation="2"/>
<feColorMatrix type="matrix" values="0 0 0 0 0 0 0 0 0 0 0 0 0 0 0 0 0 0 0.01 0"/>
<feBlend mode="normal" in2="effect4_dropShadow_2754_554" result="effect5_dropShadow_2754_554"/>
<feBlend mode="normal" in="SourceGraphic" in2="effect5_dropShadow_2754_554" result="shape"/>
</filter>
</defs>
</svg>
