<svg width="22" height="22" viewBox="0 0 22 22" fill="none" xmlns="http://www.w3.org/2000/svg">
<path d="M17.5477 8.02231L17.5476 8.02244L17.5587 8.02628C17.5805 8.03383 17.5995 8.04801 17.6129 8.06682C17.6263 8.08564 17.6335 8.10817 17.6335 8.13128C17.6335 8.15438 17.6263 8.17691 17.6129 8.19573C17.6004 8.2132 17.5832 8.22667 17.5634 8.23455L12.3006 9.86278L11.497 10.1114L12.0994 10.6985L17.6504 16.1091C17.6701 16.1297 17.6811 16.1572 17.6811 16.1857C17.6811 16.2149 17.6696 16.243 17.649 16.2638C17.6489 16.2639 17.6488 16.264 17.6487 16.2641L16.2147 17.6981C16.2146 17.6982 16.2145 17.6983 16.2144 17.6984C16.1937 17.7189 16.1656 17.7304 16.1364 17.7304C16.1071 17.7304 16.0789 17.7188 16.0581 17.6981L16.0581 17.698L16.0548 17.6948L10.4815 12.2559L9.89508 11.6837L9.65431 12.4668L8.01154 17.8105C8.01143 17.8109 8.01131 17.8112 8.0112 17.8116C8.00414 17.8332 7.99061 17.8521 7.97245 17.8658L8.27335 18.2651L7.97245 17.8658C7.95398 17.8797 7.93163 17.8875 7.90852 17.8881C7.8854 17.8887 7.86268 17.8821 7.8435 17.8692C7.82435 17.8563 7.80969 17.8378 7.80157 17.8161C7.80156 17.8161 7.80155 17.8161 7.80154 17.8161L2.05236 2.44421C2.05223 2.44387 2.05211 2.44354 2.05199 2.4432C2.04501 2.42352 2.04371 2.40226 2.04825 2.38186C2.05288 2.36112 2.06336 2.34213 2.07844 2.32716C2.09353 2.31219 2.1126 2.30186 2.13338 2.2974C2.15416 2.29294 2.17579 2.29453 2.19569 2.30199L2.19655 2.30231L17.5477 8.02231Z" fill="white" stroke="black"/>
</svg>
