<svg width="300" height="172" viewBox="0 0 300 172" fill="none" xmlns="http://www.w3.org/2000/svg">
<path d="M0.4 16H1.856L2.864 13.232H7.936L8.96 16H10.416L6.096 4.64H4.704L0.4 16ZM3.312 12.016L5.376 6.32H5.408L7.504 12.016H3.312ZM12.0285 16H15.7725C17.9005 16 18.7005 15.12 18.7005 13.824C18.7005 12.752 17.9805 12.112 17.0205 11.92V11.904C17.8845 11.632 18.3005 11.024 18.3005 10.112C18.3005 8.848 17.3565 8.208 15.6605 8.208H12.0285V16ZM13.2925 11.504V9.312H15.5965C16.4605 9.312 17.0205 9.6 17.0205 10.368C17.0205 11.136 16.5245 11.504 15.5485 11.504H13.2925ZM13.2925 14.896V12.544H15.7565C16.7965 12.544 17.3725 12.928 17.3725 13.712C17.3725 14.528 16.8285 14.896 15.6765 14.896H13.2925ZM22.274 16H23.57V9.36H26.178V8.208H19.666V9.36H22.274V16ZM31.0645 16.096C33.3685 16.096 35.0805 14.48 35.0805 12.112C35.0805 9.744 33.3685 8.112 31.0645 8.112C28.6485 8.112 27.0325 9.872 27.0325 12.112C27.0325 14.352 28.6485 16.096 31.0645 16.096ZM31.0645 14.912C29.4485 14.912 28.3605 13.664 28.3605 12.112C28.3605 10.56 29.4325 9.296 31.0645 9.296C32.5685 9.296 33.7525 10.448 33.7525 12.112C33.7525 13.776 32.5525 14.912 31.0645 14.912ZM37.0129 16H38.2609V10.416H38.2929L40.7729 14.64H41.6529L44.1489 10.4H44.1809V16H45.4289V8.208H44.1809L41.2369 13.2H41.2049L38.2769 8.208H37.0129V16ZM51.1366 16.096C52.4006 16.096 53.3606 15.52 53.9206 14.592H53.9366V16H55.1846V8.208H53.8886V9.584L53.8566 9.6C53.2966 8.656 52.2886 8.112 51.1366 8.112C48.9286 8.112 47.3446 9.856 47.3446 12.16C47.3446 14.528 48.9926 16.096 51.1366 16.096ZM51.3286 14.912C49.7286 14.912 48.6566 13.728 48.6566 12.16C48.6566 10.432 49.8566 9.296 51.3286 9.296C52.8646 9.296 53.9366 10.56 53.9366 12.16C53.9366 13.808 52.7686 14.912 51.3286 14.912ZM59.3209 16H60.6169V9.36H63.2249V8.208H56.7129V9.36H59.3209V16ZM64.841 16H66.089L70.473 10.208H70.505V16H71.801V8.208H70.569L66.169 14.128H66.137V8.208H64.841V16ZM76.8396 16.096C78.9836 16.096 80.1676 15.184 80.1676 13.84C80.1676 12.736 79.3516 12.112 78.4556 11.904V11.888C79.2876 11.6 79.7676 10.912 79.7676 10.096C79.7676 8.848 78.6156 8.112 76.7916 8.112C75.4956 8.112 74.4556 8.512 73.9276 8.816L74.4236 9.872C75.0476 9.52 75.8636 9.28 76.8076 9.28C77.7996 9.28 78.4716 9.6 78.4716 10.416C78.4716 11.136 77.9436 11.52 76.9196 11.52H75.3676V12.56H77.1276C78.1996 12.56 78.8396 12.928 78.8396 13.68C78.8396 14.496 78.0716 14.944 76.8396 14.944C75.7516 14.944 74.7756 14.624 74.0556 14.112L73.6556 15.28C74.2796 15.68 75.3196 16.096 76.8396 16.096ZM85.3085 16.096C86.5725 16.096 87.5325 15.52 88.0925 14.592H88.1085V16H89.3565V8.208H88.0605V9.584L88.0285 9.6C87.4685 8.656 86.4605 8.112 85.3085 8.112C83.1005 8.112 81.5165 9.856 81.5165 12.16C81.5165 14.528 83.1645 16.096 85.3085 16.096ZM85.5005 14.912C83.9005 14.912 82.8285 13.728 82.8285 12.16C82.8285 10.432 84.0285 9.296 85.5005 9.296C87.0365 9.296 88.1085 10.56 88.1085 12.16C88.1085 13.808 86.9405 14.912 85.5005 14.912ZM99.5248 14.848H98.1008V8.208H96.8048V14.848H92.9808V8.208H91.6848V16H98.3408L98.4208 18.144H99.5248V14.848ZM101.185 16H102.433L106.817 10.208H106.849V16H108.145V8.208H106.913L102.513 14.128H102.481V8.208H101.185V16ZM113.295 8.208C111.247 8.208 110.255 9.216 110.255 10.768C110.255 11.92 110.895 12.768 112.095 13.072L109.967 16H111.439L113.455 13.2H115.439V16H116.735V8.208H113.295ZM115.439 12.08H113.215C112.047 12.08 111.567 11.552 111.567 10.768C111.567 9.824 112.127 9.328 113.279 9.328H115.439V12.08ZM127.291 16.096C129.387 16.096 131.131 14.432 131.131 12.08C131.131 9.776 129.467 8.176 127.467 8.176C125.915 8.176 124.939 8.992 124.427 10.016L124.395 10C124.571 7.696 124.843 6.304 127.403 5.84L130.523 5.28L130.155 4.128L127.147 4.656C123.707 5.264 123.227 7.632 123.227 11.024C123.211 13.952 124.443 16.096 127.291 16.096ZM127.243 14.928C125.403 14.928 124.555 13.328 124.555 11.968C124.571 10.736 125.515 9.344 127.195 9.344C128.651 9.344 129.819 10.496 129.819 12.08C129.819 13.76 128.603 14.928 127.243 14.928ZM133.029 16H134.277L138.661 10.208H138.693V16H139.989V8.208H138.757L134.357 14.128H134.325V8.208H133.029V16ZM145.027 16.096C147.171 16.096 148.355 15.184 148.355 13.84C148.355 12.736 147.539 12.112 146.643 11.904V11.888C147.475 11.6 147.955 10.912 147.955 10.096C147.955 8.848 146.803 8.112 144.979 8.112C143.683 8.112 142.643 8.512 142.115 8.816L142.611 9.872C143.235 9.52 144.051 9.28 144.995 9.28C145.987 9.28 146.659 9.6 146.659 10.416C146.659 11.136 146.131 11.52 145.107 11.52H143.555V12.56H145.315C146.387 12.56 147.027 12.928 147.027 13.68C147.027 14.496 146.259 14.944 145.027 14.944C143.939 14.944 142.963 14.624 142.243 14.112L141.843 15.28C142.467 15.68 143.507 16.096 145.027 16.096ZM150.263 16H151.559V12.752H155.767V16H157.063V8.208H155.767V11.632H151.559V8.208H150.263V16ZM166.425 11.968C166.425 9.744 164.969 8.112 162.841 8.112C160.617 8.112 159.001 9.76 159.001 12.112C159.001 14.496 160.633 16.096 162.937 16.096C164.505 16.096 165.481 15.504 166.153 14.64L165.241 13.872C164.761 14.464 164.025 14.912 162.985 14.912C161.513 14.912 160.489 13.952 160.313 12.496H166.393C166.393 12.4 166.425 12.176 166.425 11.968ZM162.825 9.296C164.105 9.296 164.937 10.16 165.129 11.44H160.345C160.585 10.112 161.577 9.296 162.825 9.296ZM171.717 16.096C173.237 16.096 174.277 15.52 174.933 14.736L174.037 13.92C173.557 14.512 172.741 14.912 171.813 14.912C170.229 14.912 169.157 13.776 169.157 12.112C169.157 10.464 170.229 9.296 171.829 9.296C172.757 9.296 173.525 9.712 174.021 10.288L174.901 9.504C174.133 8.592 172.933 8.112 171.765 8.112C169.445 8.112 167.829 9.76 167.829 12.112C167.829 14.48 169.445 16.096 171.717 16.096ZM176.161 11.712H180.897V10.432H176.161V11.712ZM182.997 16H184.293V9.36H188.325V16H189.621V8.208H182.997V16ZM192.06 19.168H193.356V14.656H193.372C193.948 15.552 194.908 16.096 196.14 16.096C198.284 16.096 199.932 14.528 199.932 12.16C199.932 9.856 198.348 8.112 196.14 8.112C194.956 8.112 193.964 8.656 193.372 9.584H193.356V8.208H192.06V19.168ZM195.964 14.912C194.476 14.912 193.292 13.808 193.292 12.16C193.292 10.56 194.364 9.296 195.948 9.296C197.42 9.296 198.62 10.432 198.62 12.16C198.62 13.728 197.532 14.912 195.964 14.912ZM205.424 16.096C207.728 16.096 209.44 14.48 209.44 12.112C209.44 9.744 207.728 8.112 205.424 8.112C203.008 8.112 201.392 9.872 201.392 12.112C201.392 14.352 203.008 16.096 205.424 16.096ZM205.424 14.912C203.808 14.912 202.72 13.664 202.72 12.112C202.72 10.56 203.792 9.296 205.424 9.296C206.928 9.296 208.112 10.448 208.112 12.112C208.112 13.776 206.912 14.912 205.424 14.912ZM219.212 14.848H217.788V8.208H216.492V14.848H212.668V8.208H211.372V16H218.028L218.108 18.144H219.212V14.848ZM227.503 11.968C227.503 9.744 226.047 8.112 223.919 8.112C221.695 8.112 220.079 9.76 220.079 12.112C220.079 14.496 221.711 16.096 224.015 16.096C225.583 16.096 226.559 15.504 227.231 14.64L226.319 13.872C225.839 14.464 225.103 14.912 224.063 14.912C222.591 14.912 221.567 13.952 221.391 12.496H227.471C227.471 12.4 227.503 12.176 227.503 11.968ZM223.903 9.296C225.183 9.296 226.015 10.16 226.207 11.44H221.423C221.663 10.112 222.655 9.296 223.903 9.296ZM232.796 16.096C234.316 16.096 235.356 15.52 236.012 14.736L235.116 13.92C234.636 14.512 233.82 14.912 232.891 14.912C231.308 14.912 230.236 13.776 230.236 12.112C230.236 10.464 231.308 9.296 232.908 9.296C233.836 9.296 234.604 9.712 235.1 10.288L235.98 9.504C235.212 8.592 234.012 8.112 232.844 8.112C230.524 8.112 228.908 9.76 228.908 12.112C228.908 14.48 230.524 16.096 232.796 16.096ZM240.905 16.096C242.425 16.096 243.465 15.52 244.121 14.736L243.225 13.92C242.745 14.512 241.929 14.912 241.001 14.912C239.417 14.912 238.345 13.776 238.345 12.112C238.345 10.464 239.417 9.296 241.017 9.296C241.945 9.296 242.713 9.712 243.209 10.288L244.089 9.504C243.321 8.592 242.121 8.112 240.953 8.112C238.633 8.112 237.017 9.76 237.017 12.112C237.017 14.48 238.633 16.096 240.905 16.096ZM249.158 16.096C251.462 16.096 253.174 14.48 253.174 12.112C253.174 9.744 251.462 8.112 249.158 8.112C246.742 8.112 245.126 9.872 245.126 12.112C245.126 14.352 246.742 16.096 249.158 16.096ZM249.158 14.912C247.542 14.912 246.454 13.664 246.454 12.112C246.454 10.56 247.526 9.296 249.158 9.296C250.662 9.296 251.846 10.448 251.846 12.112C251.846 13.776 250.646 14.912 249.158 14.912ZM255.107 16H258.851C260.979 16 261.779 15.12 261.779 13.824C261.779 12.752 261.059 12.112 260.099 11.92V11.904C260.963 11.632 261.379 11.024 261.379 10.112C261.379 8.848 260.435 8.208 258.739 8.208H255.107V16ZM256.371 11.504V9.312H258.675C259.539 9.312 260.099 9.6 260.099 10.368C260.099 11.136 259.603 11.504 258.627 11.504H256.371ZM256.371 14.896V12.544H258.835C259.875 12.544 260.451 12.928 260.451 13.712C260.451 14.528 259.907 14.896 258.755 14.896H256.371ZM6.576 54.08C8.576 54.08 10.016 53.168 11.008 51.936L9.968 51.056C9.168 52.064 8.048 52.768 6.576 52.768C4.176 52.768 2.368 51.072 2.368 48.352C2.368 45.744 3.984 43.856 6.56 43.856C7.84 43.856 9.008 44.4 9.952 45.568L10.992 44.704C9.792 43.232 8.192 42.528 6.56 42.528C2.928 42.528 0.912 45.136 0.912 48.352C0.912 52.064 3.504 54.08 6.576 54.08ZM14.0581 46.208C14.0261 47.536 13.9781 49.312 13.8501 50.528C13.6741 52.064 13.1621 52.864 12.3621 52.864C12.2021 52.864 12.0901 52.848 11.9941 52.832L11.8981 53.952C12.0581 54.016 12.3141 54.064 12.5861 54.064C13.9781 54.064 14.7781 53.072 15.0661 50.944C15.1941 49.92 15.2581 48.64 15.3221 47.36H18.0741V54H19.3701V46.208H14.0581ZM25.3458 54.096C27.6498 54.096 29.3618 52.48 29.3618 50.112C29.3618 47.744 27.6498 46.112 25.3458 46.112C22.9298 46.112 21.3138 47.872 21.3138 50.112C21.3138 52.352 22.9298 54.096 25.3458 54.096ZM25.3458 52.912C23.7298 52.912 22.6418 51.664 22.6418 50.112C22.6418 48.56 23.7138 47.296 25.3458 47.296C26.8498 47.296 28.0338 48.448 28.0338 50.112C28.0338 51.776 26.8338 52.912 25.3458 52.912ZM29.9614 54H31.4174L33.9134 50.368L35.1774 51.728V54H36.4254V51.744L37.6414 50.368L40.1534 54H41.6574L38.5694 49.664L41.4814 46.208H39.9614L36.4414 50.4H36.4254V46.208H35.1774V50.352H35.1454L31.5774 46.208H30.0094L33.0014 49.68L29.9614 54ZM43.2316 54H44.5276V50.752H48.7356V54H50.0316V46.208H48.7356V49.632H44.5276V46.208H43.2316V54ZM52.466 54H55.394C57.618 54 58.482 52.96 58.482 51.408C58.482 49.824 57.682 48.8 55.506 48.8H53.762V46.208H52.466V54ZM59.954 54H61.25V46.208H59.954V54ZM53.762 52.88V49.904H55.458C56.594 49.904 57.17 50.4 57.17 51.424C57.17 52.368 56.594 52.88 55.394 52.88H53.762ZM70.6128 49.968C70.6128 47.744 69.1568 46.112 67.0288 46.112C64.8048 46.112 63.1888 47.76 63.1888 50.112C63.1888 52.496 64.8207 54.096 67.1248 54.096C68.6928 54.096 69.6688 53.504 70.3408 52.64L69.4288 51.872C68.9488 52.464 68.2128 52.912 67.1727 52.912C65.7008 52.912 64.6768 51.952 64.5008 50.496H70.5808C70.5808 50.4 70.6128 50.176 70.6128 49.968ZM67.0128 47.296C68.2928 47.296 69.1248 48.16 69.3168 49.44H64.5328C64.7728 48.112 65.7648 47.296 67.0128 47.296ZM76.8723 54H78.1203L82.5043 48.208H82.5363V54H83.8323V46.208H82.6003L78.2003 52.128H78.1683V46.208H76.8723V54ZM86.2629 54H87.5589V50.752H91.7669V54H93.0629V46.208H91.7669V49.632H87.5589V46.208H86.2629V54ZM97.3053 54H98.6013V47.36H101.209V46.208H94.6973V47.36H97.3053V54ZM109.488 49.968C109.488 47.744 108.032 46.112 105.904 46.112C103.68 46.112 102.064 47.76 102.064 50.112C102.064 52.496 103.696 54.096 106 54.096C107.568 54.096 108.544 53.504 109.216 52.64L108.304 51.872C107.824 52.464 107.088 52.912 106.048 52.912C104.576 52.912 103.552 51.952 103.376 50.496H109.456C109.456 50.4 109.488 50.176 109.488 49.968ZM105.888 47.296C107.168 47.296 108 48.16 108.192 49.44H103.408C103.648 48.112 104.64 47.296 105.888 47.296ZM111.388 54H112.684V47.36H116.732V46.208H111.388V54ZM118.372 57.168H119.668V52.656H119.684C120.26 53.552 121.22 54.096 122.452 54.096C124.596 54.096 126.244 52.528 126.244 50.16C126.244 47.856 124.66 46.112 122.452 46.112C121.268 46.112 120.276 46.656 119.684 47.584H119.668V46.208H118.372V57.168ZM122.276 52.912C120.788 52.912 119.604 51.808 119.604 50.16C119.604 48.56 120.676 47.296 122.26 47.296C123.732 47.296 124.932 48.432 124.932 50.16C124.932 51.728 123.844 52.912 122.276 52.912ZM131.48 54.096C132.744 54.096 133.704 53.52 134.264 52.592H134.28V54H135.528V46.208H134.232V47.584L134.2 47.6C133.64 46.656 132.632 46.112 131.48 46.112C129.272 46.112 127.688 47.856 127.688 50.16C127.688 52.528 129.336 54.096 131.48 54.096ZM131.672 52.912C130.072 52.912 129 51.728 129 50.16C129 48.432 130.2 47.296 131.672 47.296C133.208 47.296 134.28 48.56 134.28 50.16C134.28 51.808 133.112 52.912 131.672 52.912ZM145.697 52.848H144.273V46.208H142.977V52.848H139.153V46.208H137.857V54H144.513L144.593 56.144H145.697V52.848ZM147.357 54H148.605L152.989 48.208H153.021V54H154.317V46.208H153.085L148.685 52.128H148.653V46.208H147.357V54ZM156.747 54H157.995L162.379 48.208H162.411V54H163.707V46.208H162.475L158.075 52.128H158.043V46.208H156.747V54ZM1.408 92H2.816V83.344H2.832L6.528 89.712H7.472L11.168 83.344H11.2V92H12.592V80.64H11.2L7.024 87.984H6.992L2.816 80.64H1.408V92ZM18.496 92.096C19.76 92.096 20.72 91.52 21.28 90.592H21.296V92H22.544V84.208H21.248V85.584L21.216 85.6C20.656 84.656 19.648 84.112 18.496 84.112C16.288 84.112 14.704 85.856 14.704 88.16C14.704 90.528 16.352 92.096 18.496 92.096ZM18.688 90.912C17.088 90.912 16.016 89.728 16.016 88.16C16.016 86.432 17.216 85.296 18.688 85.296C20.224 85.296 21.296 86.56 21.296 88.16C21.296 89.808 20.128 90.912 18.688 90.912ZM24.8723 95.168H26.1683V90.656H26.1843C26.7603 91.552 27.7203 92.096 28.9523 92.096C31.0963 92.096 32.7443 90.528 32.7443 88.16C32.7443 85.856 31.1603 84.112 28.9523 84.112C27.7682 84.112 26.7763 84.656 26.1843 85.584H26.1683V84.208H24.8723V95.168ZM28.7763 90.912C27.2883 90.912 26.1043 89.808 26.1043 88.16C26.1043 86.56 27.1763 85.296 28.7603 85.296C30.2323 85.296 31.4323 86.432 31.4323 88.16C31.4323 89.728 30.3443 90.912 28.7763 90.912ZM34.7004 92H35.9964V89.952L37.5004 88.352L40.1884 92H41.7244L38.4284 87.568L41.5484 84.208H39.9484L36.0284 88.464H35.9964V84.208H34.7004V92ZM49.8315 87.968C49.8315 85.744 48.3755 84.112 46.2475 84.112C44.0235 84.112 42.4075 85.76 42.4075 88.112C42.4075 90.496 44.0395 92.096 46.3435 92.096C47.9115 92.096 48.8875 91.504 49.5595 90.64L48.6475 89.872C48.1675 90.464 47.4315 90.912 46.3915 90.912C44.9195 90.912 43.8955 89.952 43.7195 88.496H49.7995C49.7995 88.4 49.8315 88.176 49.8315 87.968ZM46.2315 85.296C47.5115 85.296 48.3435 86.16 48.5355 87.44H43.7515C43.9915 86.112 44.9835 85.296 46.2315 85.296ZM53.2896 92H54.5856V85.36H57.1936V84.208H50.6816V85.36H53.2896V92ZM58.8098 92H60.1058V85.36H64.1378V92H65.4338V84.208H58.8098V92ZM69.1363 84.208C69.1043 85.536 69.0563 87.312 68.9283 88.528C68.7523 90.064 68.2403 90.864 67.4403 90.864C67.2803 90.864 67.1683 90.848 67.0723 90.832L66.9763 91.952C67.1363 92.016 67.3923 92.064 67.6643 92.064C69.0563 92.064 69.8563 91.072 70.1443 88.944C70.2723 87.92 70.3363 86.64 70.4003 85.36H73.1523V92H74.4483V84.208H69.1363ZM83.8159 87.968C83.8159 85.744 82.3599 84.112 80.2319 84.112C78.0079 84.112 76.3919 85.76 76.3919 88.112C76.3919 90.496 78.0239 92.096 80.3279 92.096C81.8959 92.096 82.8719 91.504 83.5439 90.64L82.6319 89.872C82.1519 90.464 81.4159 90.912 80.3759 90.912C78.9039 90.912 77.8799 89.952 77.7039 88.496H83.7839C83.7839 88.4 83.8159 88.176 83.8159 87.968ZM80.2159 85.296C81.4959 85.296 82.3279 86.16 82.5199 87.44H77.7359C77.9759 86.112 78.9679 85.296 80.2159 85.296ZM89.284 83.136C90.5 83.136 91.588 82.56 91.828 81.008L90.676 80.8C90.628 81.52 90.228 82.288 89.284 82.288C88.356 82.288 87.956 81.52 87.892 80.8L86.74 81.008C86.98 82.56 88.068 83.136 89.284 83.136ZM85.716 92H86.964L91.348 86.208H91.38V92H92.676V84.208H91.444L87.044 90.128H87.012V84.208H85.716V92ZM98.4986 92.096C100.019 92.096 101.059 91.52 101.715 90.736L100.819 89.92C100.339 90.512 99.5226 90.912 98.5946 90.912C97.0106 90.912 95.9386 89.776 95.9386 88.112C95.9386 86.464 97.0106 85.296 98.6106 85.296C99.5386 85.296 100.307 85.712 100.803 86.288L101.683 85.504C100.915 84.592 99.7146 84.112 98.5466 84.112C96.2266 84.112 94.6106 85.76 94.6106 88.112C94.6106 90.48 96.2266 92.096 98.4986 92.096ZM1.408 130H2.8V126.848L4.448 124.912L8.144 130H9.888L5.376 123.824L9.776 118.64H7.984L2.832 124.864H2.8V118.64H1.408V130ZM14.502 130.096C16.806 130.096 18.518 128.48 18.518 126.112C18.518 123.744 16.806 122.112 14.502 122.112C12.086 122.112 10.47 123.872 10.47 126.112C10.47 128.352 12.086 130.096 14.502 130.096ZM14.502 128.912C12.886 128.912 11.798 127.664 11.798 126.112C11.798 124.56 12.87 123.296 14.502 123.296C16.006 123.296 17.19 124.448 17.19 126.112C17.19 127.776 15.99 128.912 14.502 128.912ZM20.4504 133.168H21.7464V128.656H21.7624C22.3384 129.552 23.2984 130.096 24.5304 130.096C26.6744 130.096 28.3224 128.528 28.3224 126.16C28.3224 123.856 26.7384 122.112 24.5304 122.112C23.3464 122.112 22.3544 122.656 21.7624 123.584H21.7464V122.208H20.4504V133.168ZM24.3544 128.912C22.8664 128.912 21.6824 127.808 21.6824 126.16C21.6824 124.56 22.7544 123.296 24.3384 123.296C25.8104 123.296 27.0104 124.432 27.0104 126.16C27.0104 127.728 25.9224 128.912 24.3544 128.912ZM30.2785 130H31.5745V123.36H35.6065V130H36.9025V122.208H30.2785V130ZM42.877 130.096C45.181 130.096 46.893 128.48 46.893 126.112C46.893 123.744 45.181 122.112 42.877 122.112C40.461 122.112 38.845 123.872 38.845 126.112C38.845 128.352 40.461 130.096 42.877 130.096ZM42.877 128.912C41.261 128.912 40.173 127.664 40.173 126.112C40.173 124.56 41.245 123.296 42.877 123.296C44.381 123.296 45.565 124.448 45.565 126.112C45.565 127.776 44.365 128.912 42.877 128.912ZM48.8254 133.168H50.1214V128.656H50.1374C50.7134 129.552 51.6734 130.096 52.9054 130.096C55.0494 130.096 56.6974 128.528 56.6974 126.16C56.6974 123.856 55.1134 122.112 52.9054 122.112C51.7214 122.112 50.7294 122.656 50.1374 123.584H50.1214V122.208H48.8254V133.168ZM52.7294 128.912C51.2414 128.912 50.0574 127.808 50.0574 126.16C50.0574 124.56 51.1294 123.296 52.7134 123.296C54.1854 123.296 55.3854 124.432 55.3854 126.16C55.3854 127.728 54.2974 128.912 52.7294 128.912ZM61.9335 130.096C63.1975 130.096 64.1575 129.52 64.7175 128.592H64.7335V130H65.9815V122.208H64.6855V123.584L64.6535 123.6C64.0935 122.656 63.0855 122.112 61.9335 122.112C59.7255 122.112 58.1415 123.856 58.1415 126.16C58.1415 128.528 59.7895 130.096 61.9335 130.096ZM62.1255 128.912C60.5255 128.912 59.4535 127.728 59.4535 126.16C59.4535 124.432 60.6535 123.296 62.1255 123.296C63.6615 123.296 64.7335 124.56 64.7335 126.16C64.7335 127.808 63.5655 128.912 62.1255 128.912ZM70.1178 130H71.4138V123.36H74.0218V122.208H67.5098V123.36H70.1178V130ZM75.6379 130H76.8859L81.2699 124.208H81.3019V130H82.5979V122.208H81.3659L76.9659 128.128H76.9339V122.208H75.6379V130ZM85.0285 130H88.7725C90.9005 130 91.7005 129.12 91.7005 127.824C91.7005 126.752 90.9805 126.112 90.0205 125.92V125.904C90.8845 125.632 91.3005 125.024 91.3005 124.112C91.3005 122.848 90.3565 122.208 88.6605 122.208H85.0285V130ZM86.2925 125.504V123.312H88.5965C89.4605 123.312 90.0205 123.6 90.0205 124.368C90.0205 125.136 89.5245 125.504 88.5485 125.504H86.2925ZM86.2925 128.896V126.544H88.7565C89.7965 126.544 90.3725 126.928 90.3725 127.712C90.3725 128.528 89.8285 128.896 88.6765 128.896H86.2925ZM93.6066 130H94.9026V126.752H99.1106V130H100.407V122.208H99.1106V125.632H94.9026V122.208H93.6066V130ZM102.841 130H105.769C107.993 130 108.857 128.96 108.857 127.408C108.857 125.824 108.057 124.8 105.881 124.8H104.137V122.208H102.841V130ZM110.329 130H111.625V122.208H110.329V130ZM104.137 128.88V125.904H105.833C106.969 125.904 107.545 126.4 107.545 127.424C107.545 128.368 106.969 128.88 105.769 128.88H104.137ZM120.988 125.968C120.988 123.744 119.532 122.112 117.404 122.112C115.18 122.112 113.564 123.76 113.564 126.112C113.564 128.496 115.196 130.096 117.5 130.096C119.068 130.096 120.044 129.504 120.716 128.64L119.804 127.872C119.324 128.464 118.588 128.912 117.548 128.912C116.076 128.912 115.052 127.952 114.876 126.496H120.956C120.956 126.4 120.988 126.176 120.988 125.968ZM117.388 123.296C118.668 123.296 119.5 124.16 119.692 125.44H114.908C115.148 124.112 116.14 123.296 117.388 123.296ZM127.247 133.168H128.543V128.656H128.559C129.135 129.552 130.095 130.096 131.327 130.096C133.471 130.096 135.119 128.528 135.119 126.16C135.119 123.856 133.535 122.112 131.327 122.112C130.143 122.112 129.151 122.656 128.559 123.584H128.543V122.208H127.247V133.168ZM131.151 128.912C129.663 128.912 128.479 127.808 128.479 126.16C128.479 124.56 129.551 123.296 131.135 123.296C132.607 123.296 133.807 124.432 133.807 126.16C133.807 127.728 132.719 128.912 131.151 128.912ZM144.003 125.968C144.003 123.744 142.547 122.112 140.419 122.112C138.195 122.112 136.579 123.76 136.579 126.112C136.579 128.496 138.211 130.096 140.515 130.096C142.083 130.096 143.059 129.504 143.731 128.64L142.819 127.872C142.339 128.464 141.603 128.912 140.563 128.912C139.091 128.912 138.067 127.952 137.891 126.496H143.971C143.971 126.4 144.003 126.176 144.003 125.968ZM140.403 123.296C141.683 123.296 142.515 124.16 142.707 125.44H137.923C138.163 124.112 139.155 123.296 140.403 123.296ZM145.872 130H156.528V122.208H155.232V128.848H151.856V122.208H150.56V128.848H147.168V122.208H145.872V130ZM165.878 125.968C165.878 123.744 164.422 122.112 162.294 122.112C160.07 122.112 158.454 123.76 158.454 126.112C158.454 128.496 160.086 130.096 162.39 130.096C163.958 130.096 164.934 129.504 165.606 128.64L164.694 127.872C164.214 128.464 163.478 128.912 162.438 128.912C160.966 128.912 159.942 127.952 159.766 126.496H165.846C165.846 126.4 165.878 126.176 165.878 125.968ZM162.278 123.296C163.558 123.296 164.39 124.16 164.582 125.44H159.798C160.038 124.112 161.03 123.296 162.278 123.296ZM167.779 130H169.075V126.752H173.283V130H174.579V122.208H173.283V125.632H169.075V122.208H167.779V130ZM177.013 130H178.261L182.645 124.208H182.677V130H183.973V122.208H182.741L178.341 128.128H178.309V122.208H177.013V130ZM189.124 122.208C187.076 122.208 186.084 123.216 186.084 124.768C186.084 125.92 186.724 126.768 187.924 127.072L185.796 130H187.268L189.284 127.2H191.268V130H192.564V122.208H189.124ZM191.268 126.08H189.044C187.876 126.08 187.396 125.552 187.396 124.768C187.396 123.824 187.956 123.328 189.108 123.328H191.268V126.08ZM4.688 168.096C6.672 168.096 8.496 166.976 8.496 164.896C8.496 162.768 6.88 162.256 4.976 161.504C3.552 160.96 2.528 160.56 2.544 159.472C2.56 158.384 3.504 157.808 4.576 157.808C5.424 157.808 6.4 158.208 7.312 158.96L8.16 157.856C7.088 156.992 5.84 156.528 4.576 156.528C2.624 156.528 1.104 157.84 1.104 159.536C1.104 161.536 2.816 162.256 4.496 162.88C6.016 163.456 7.04 163.792 7.04 165.056C7.04 166.16 6.096 166.8 4.704 166.8C3.6 166.8 2.384 166.288 1.568 165.264L0.672 166.336C1.808 167.552 3.264 168.096 4.688 168.096ZM10.4973 168H11.7933V164.128C11.7933 162.384 12.7533 161.296 14.0333 161.296C15.2013 161.296 15.8413 162.208 15.8413 163.872V168H17.1373V164.128C17.1373 162.384 18.1133 161.296 19.3293 161.296C20.5133 161.296 21.1053 162.208 21.1053 163.872V168H22.4013V163.52C22.4013 161.296 21.4413 160.112 19.7133 160.112C18.4973 160.112 17.4413 160.72 16.8493 161.776H16.8333C16.4333 160.704 15.5853 160.112 14.4173 160.112C13.3773 160.112 12.4013 160.672 11.8093 161.616H11.7933V160.208H10.4973V168ZM27.9335 168.096C29.1975 168.096 30.1575 167.52 30.7175 166.592H30.7335V168H31.9815V160.208H30.6855V161.584L30.6535 161.6C30.0935 160.656 29.0855 160.112 27.9335 160.112C25.7255 160.112 24.1415 161.856 24.1415 164.16C24.1415 166.528 25.7895 168.096 27.9335 168.096ZM28.1255 166.912C26.5255 166.912 25.4535 165.728 25.4535 164.16C25.4535 162.432 26.6535 161.296 28.1255 161.296C29.6615 161.296 30.7335 162.56 30.7335 164.16C30.7335 165.808 29.5655 166.912 28.1255 166.912ZM34.3098 168H35.6058V164.24C35.6058 162.672 36.4858 161.536 37.9738 161.536C38.1018 161.536 38.2938 161.552 38.4858 161.568V160.128C38.3738 160.112 38.2778 160.112 38.1658 160.112C37.0938 160.112 36.1978 160.688 35.6378 161.632H35.6058V160.208H34.3098V168ZM42.1424 168.096C43.0704 168.096 43.5984 167.872 44.0304 167.616L43.6944 166.48C43.3104 166.688 42.8304 166.88 42.3664 166.88C41.6304 166.88 41.4224 166.432 41.4224 165.488V161.328H43.9984V160.208H41.4224V157.408L40.1264 157.552V160.208H39.1184V161.328H40.1264V165.68C40.1264 167.248 40.7664 168.096 42.1424 168.096ZM52.747 168H54.139V157.904H57.579V156.64H49.355V157.904H52.747V168ZM62.8149 168H64.0629L68.3509 156.64H66.8629L63.4549 165.984H63.4389L60.0309 156.64H58.5269L62.8149 168ZM68.0581 170.096H69.0341L69.9941 166.24H68.5861L68.0581 170.096ZM76.7049 168H78.0969V164.848L79.7449 162.912L83.4409 168H85.1849L80.6729 161.824L85.0729 156.64H83.2809L78.1289 162.864H78.0969V156.64H76.7049V168ZM87.4368 158.784C87.9648 158.784 88.3808 158.368 88.3808 157.856C88.3808 157.344 87.9648 156.928 87.4368 156.928C86.9088 156.928 86.4928 157.344 86.4928 157.856C86.4928 158.368 86.9088 158.784 87.4368 158.784ZM86.7808 168H88.0768V160.208H86.7808V168ZM92.7986 168.096C93.7266 168.096 94.2546 167.872 94.6866 167.616L94.3506 166.48C93.9666 166.688 93.4866 166.88 93.0226 166.88C92.2866 166.88 92.0786 166.432 92.0786 165.488V161.328H94.6546V160.208H92.0786V157.408L90.7826 157.552V160.208H89.7746V161.328H90.7826V165.68C90.7826 167.248 91.4226 168.096 92.7986 168.096ZM95.6519 170.096H96.6279L97.5879 166.24H96.1799L95.6519 170.096ZM107.659 168H108.907L113.195 156.64H111.707L108.299 165.984H108.283L104.875 156.64H103.371L107.659 168ZM115.017 168H116.409V163.664H118.441L121.449 168H123.113L119.977 163.536C121.769 163.168 122.809 162.064 122.809 160.16C122.809 158.144 121.673 156.64 119.049 156.64H115.017V168ZM116.409 162.4V157.904H118.857C120.425 157.904 121.369 158.672 121.369 160.128C121.369 161.44 120.553 162.4 118.665 162.4H116.409ZM134.234 169.808L135.274 169.328L129.114 155.68L128.09 156.176L134.234 169.808ZM139.65 168H141.106L142.114 165.232H147.186L148.21 168H149.666L145.346 156.64H143.954L139.65 168ZM142.562 164.016L144.626 158.32H144.658L146.754 164.016H142.562ZM151.471 168H152.863V163.664H154.895L157.903 168H159.567L156.431 163.536C158.223 163.168 159.263 162.064 159.263 160.16C159.263 158.144 158.127 156.64 155.503 156.64H151.471V168ZM152.863 162.4V157.904H155.311C156.879 157.904 157.823 158.672 157.823 160.128C157.823 161.44 157.007 162.4 155.119 162.4H152.863Z" fill="black"/>
<circle cx="290" cy="48" r="10" fill="#EB5757"/>
<path fill-rule="evenodd" clip-rule="evenodd" d="M293.707 45.2929C294.098 45.6834 294.098 46.3166 293.707 46.7071L289.707 50.7071C289.317 51.0976 288.683 51.0976 288.293 50.7071L286.293 48.7071C285.902 48.3166 285.902 47.6834 286.293 47.2929C286.683 46.9024 287.317 46.9024 287.707 47.2929L289 48.5858L292.293 45.2929C292.683 44.9024 293.317 44.9024 293.707 45.2929Z" fill="white"/>
<circle cx="290" cy="85" r="10" fill="#EB5757"/>
<path fill-rule="evenodd" clip-rule="evenodd" d="M293.707 82.2929C294.098 82.6834 294.098 83.3166 293.707 83.7071L289.707 87.7071C289.317 88.0976 288.683 88.0976 288.293 87.7071L286.293 85.7071C285.902 85.3166 285.902 84.6834 286.293 84.2929C286.683 83.9024 287.317 83.9024 287.707 84.2929L289 85.5858L292.293 82.2929C292.683 81.9024 293.317 81.9024 293.707 82.2929Z" fill="white"/>
<circle cx="290" cy="122" r="10" fill="#EB5757"/>
<path fill-rule="evenodd" clip-rule="evenodd" d="M293.707 119.293C294.098 119.683 294.098 120.317 293.707 120.707L289.707 124.707C289.317 125.098 288.683 125.098 288.293 124.707L286.293 122.707C285.902 122.317 285.902 121.683 286.293 121.293C286.683 120.902 287.317 120.902 287.707 121.293L289 122.586L292.293 119.293C292.683 118.902 293.317 118.902 293.707 119.293Z" fill="white"/>
<circle cx="290" cy="159" r="10" fill="#EB5757"/>
<path fill-rule="evenodd" clip-rule="evenodd" d="M293.707 156.293C294.098 156.683 294.098 157.317 293.707 157.707L289.707 161.707C289.317 162.098 288.683 162.098 288.293 161.707L286.293 159.707C285.902 159.317 285.902 158.683 286.293 158.293C286.683 157.902 287.317 157.902 287.707 158.293L289 159.586L292.293 156.293C292.683 155.902 293.317 155.902 293.707 156.293Z" fill="white"/>
<circle cx="290" cy="11" r="10" fill="#EB5757"/>
<path fill-rule="evenodd" clip-rule="evenodd" d="M293.707 8.29289C294.098 8.68342 294.098 9.31658 293.707 9.70711L289.707 13.7071C289.317 14.0976 288.683 14.0976 288.293 13.7071L286.293 11.7071C285.902 11.3166 285.902 10.6834 286.293 10.2929C286.683 9.90237 287.317 9.90237 287.707 10.2929L289 11.5858L292.293 8.29289C292.683 7.90237 293.317 7.90237 293.707 8.29289Z" fill="white"/>
</svg>
