<svg width="266" height="172" viewBox="0 0 266 172" fill="none" xmlns="http://www.w3.org/2000/svg">
<path d="M1.408 16H2.8V12.848L4.448 10.912L8.144 16H9.888L5.376 9.824L9.776 4.64H7.984L2.832 10.864H2.8V4.64H1.408V16ZM14.246 16.096C15.51 16.096 16.47 15.52 17.03 14.592H17.046V16H18.294V8.208H16.998V9.584L16.966 9.6C16.406 8.656 15.398 8.112 14.246 8.112C12.038 8.112 10.454 9.856 10.454 12.16C10.454 14.528 12.102 16.096 14.246 16.096ZM14.438 14.912C12.838 14.912 11.766 13.728 11.766 12.16C11.766 10.432 12.966 9.296 14.438 9.296C15.974 9.296 17.046 10.56 17.046 12.16C17.046 13.808 15.878 14.912 14.438 14.912ZM22.4303 16H23.7263V9.36H26.3343V8.208H19.8223V9.36H22.4303V16ZM30.9648 16.096C32.2288 16.096 33.1888 15.52 33.7488 14.592H33.7648V16H35.0128V8.208H33.7168V9.584L33.6848 9.6C33.1248 8.656 32.1168 8.112 30.9648 8.112C28.7568 8.112 27.1728 9.856 27.1728 12.16C27.1728 14.528 28.8207 16.096 30.9648 16.096ZM31.1568 14.912C29.5568 14.912 28.4848 13.728 28.4848 12.16C28.4848 10.432 29.6848 9.296 31.1568 9.296C32.6928 9.296 33.7648 10.56 33.7648 12.16C33.7648 13.808 32.5968 14.912 31.1568 14.912ZM38.605 8.208C38.573 9.536 38.525 11.312 38.397 12.528C38.221 14.064 37.709 14.864 36.909 14.864C36.749 14.864 36.637 14.848 36.541 14.832L36.445 15.952C36.605 16.016 36.861 16.064 37.133 16.064C38.525 16.064 39.325 15.072 39.613 12.944C39.741 11.92 39.805 10.64 39.869 9.36H42.621V16H43.917V8.208H38.605ZM49.8926 16.096C52.1966 16.096 53.9086 14.48 53.9086 12.112C53.9086 9.744 52.1966 8.112 49.8926 8.112C47.4766 8.112 45.8606 9.872 45.8606 12.112C45.8606 14.352 47.4766 16.096 49.8926 16.096ZM49.8926 14.912C48.2766 14.912 47.1886 13.664 47.1886 12.112C47.1886 10.56 48.2606 9.296 49.8926 9.296C51.3966 9.296 52.5806 10.448 52.5806 12.112C52.5806 13.776 51.3806 14.912 49.8926 14.912ZM55.841 16H57.137V9.36H61.185V8.208H55.841V16ZM68.9928 16H70.2888V9.36H72.8968V8.208H66.3848V9.36H68.9928V16ZM77.7833 16.096C80.0873 16.096 81.7993 14.48 81.7993 12.112C81.7993 9.744 80.0873 8.112 77.7833 8.112C75.3673 8.112 73.7513 9.872 73.7513 12.112C73.7513 14.352 75.3673 16.096 77.7833 16.096ZM77.7833 14.912C76.1673 14.912 75.0793 13.664 75.0793 12.112C75.0793 10.56 76.1513 9.296 77.7833 9.296C79.2873 9.296 80.4713 10.448 80.4713 12.112C80.4713 13.776 79.2713 14.912 77.7833 14.912ZM83.7316 16H87.4756C89.6036 16 90.4036 15.12 90.4036 13.824C90.4036 12.752 89.6836 12.112 88.7236 11.92V11.904C89.5876 11.632 90.0036 11.024 90.0036 10.112C90.0036 8.848 89.0596 8.208 87.3636 8.208H83.7316V16ZM84.9956 11.504V9.312H87.2996C88.1636 9.312 88.7236 9.6 88.7236 10.368C88.7236 11.136 88.2276 11.504 87.2516 11.504H84.9956ZM84.9956 14.896V12.544H87.4596C88.4996 12.544 89.0756 12.928 89.0756 13.712C89.0756 14.528 88.5316 14.896 87.3796 14.896H84.9956ZM95.5429 16.096C96.8069 16.096 97.7669 15.52 98.3269 14.592H98.3429V16H99.5909V8.208H98.2949V9.584L98.2629 9.6C97.7029 8.656 96.6949 8.112 95.5429 8.112C93.3349 8.112 91.7509 9.856 91.7509 12.16C91.7509 14.528 93.3989 16.096 95.5429 16.096ZM95.7349 14.912C94.1349 14.912 93.0629 13.728 93.0629 12.16C93.0629 10.432 94.2629 9.296 95.7349 9.296C97.2709 9.296 98.3429 10.56 98.3429 12.16C98.3429 13.808 97.1749 14.912 95.7349 14.912ZM101.919 19.168H103.215V14.656H103.231C103.807 15.552 104.767 16.096 105.999 16.096C108.143 16.096 109.791 14.528 109.791 12.16C109.791 9.856 108.207 8.112 105.999 8.112C104.815 8.112 103.823 8.656 103.231 9.584H103.215V8.208H101.919V19.168ZM105.823 14.912C104.335 14.912 103.151 13.808 103.151 12.16C103.151 10.56 104.223 9.296 105.807 9.296C107.279 9.296 108.479 10.432 108.479 12.16C108.479 13.728 107.391 14.912 105.823 14.912ZM115.283 16.096C117.587 16.096 119.299 14.48 119.299 12.112C119.299 9.744 117.587 8.112 115.283 8.112C112.867 8.112 111.251 9.872 111.251 12.112C111.251 14.352 112.867 16.096 115.283 16.096ZM115.283 14.912C113.667 14.912 112.579 13.664 112.579 12.112C112.579 10.56 113.651 9.296 115.283 9.296C116.787 9.296 117.971 10.448 117.971 12.112C117.971 13.776 116.771 14.912 115.283 14.912ZM121.232 16H124.976C127.104 16 127.904 15.12 127.904 13.824C127.904 12.752 127.184 12.112 126.224 11.92V11.904C127.088 11.632 127.504 11.024 127.504 10.112C127.504 8.848 126.56 8.208 124.864 8.208H121.232V16ZM122.496 11.504V9.312H124.8C125.664 9.312 126.224 9.6 126.224 10.368C126.224 11.136 125.728 11.504 124.752 11.504H122.496ZM122.496 14.896V12.544H124.96C126 12.544 126.576 12.928 126.576 13.712C126.576 14.528 126.032 14.896 124.88 14.896H122.496ZM134.169 16H135.417L139.801 10.208H139.833V16H141.129V8.208H139.897L135.497 14.128H135.465V8.208H134.169V16ZM144.824 8.208C144.792 9.536 144.744 11.312 144.616 12.528C144.44 14.064 143.928 14.864 143.128 14.864C142.968 14.864 142.856 14.848 142.76 14.832L142.664 15.952C142.824 16.016 143.08 16.064 143.352 16.064C144.744 16.064 145.544 15.072 145.832 12.944C145.96 11.92 146.024 10.64 146.088 9.36H148.84V16H150.136V8.208H144.824ZM152.575 16H153.823L158.207 10.208H158.239V16H159.535V8.208H158.303L153.903 14.128H153.871V8.208H152.575V16ZM167.381 19.168H168.725L173.141 8.208H171.781L169.429 14.128H169.397L166.869 8.208H165.461L168.773 15.696L167.381 19.168ZM177.733 16.096C179.253 16.096 180.293 15.52 180.949 14.736L180.053 13.92C179.573 14.512 178.757 14.912 177.829 14.912C176.245 14.912 175.173 13.776 175.173 12.112C175.173 10.464 176.245 9.296 177.845 9.296C178.773 9.296 179.541 9.712 180.037 10.288L180.917 9.504C180.149 8.592 178.949 8.112 177.781 8.112C175.461 8.112 173.845 9.76 173.845 12.112C173.845 14.48 175.461 16.096 177.733 16.096ZM183.949 8.208C183.917 9.536 183.869 11.312 183.741 12.528C183.565 14.064 183.053 14.864 182.253 14.864C182.093 14.864 181.981 14.848 181.885 14.832L181.789 15.952C181.949 16.016 182.205 16.064 182.477 16.064C183.869 16.064 184.669 15.072 184.957 12.944C185.085 11.92 185.149 10.64 185.213 9.36H187.965V16H189.261V8.208H183.949ZM192.756 19.168H194.1L198.516 8.208H197.156L194.804 14.128H194.772L192.244 8.208H190.836L194.148 15.696L192.756 19.168ZM200.107 16H201.403V9.36H205.451V8.208H200.107V16ZM6.576 54.08C8.576 54.08 10.016 53.168 11.008 51.936L9.968 51.056C9.168 52.064 8.048 52.768 6.576 52.768C4.176 52.768 2.368 51.072 2.368 48.352C2.368 45.744 3.984 43.856 6.56 43.856C7.84 43.856 9.008 44.4 9.952 45.568L10.992 44.704C9.792 43.232 8.192 42.528 6.56 42.528C2.928 42.528 0.912 45.136 0.912 48.352C0.912 52.064 3.504 54.08 6.576 54.08ZM20.7659 52.848H19.4059V46.208H14.3179C14.3019 47.456 14.2379 48.736 14.0139 49.952C13.8379 50.992 13.5179 51.984 13.0059 52.848H11.7739V56.144H12.8619L12.9419 54H19.5819L19.6619 56.144H20.7659V52.848ZM14.3499 52.848C14.7499 52.112 15.0379 51.264 15.2299 50.336C15.4539 49.328 15.5179 48.288 15.5499 47.36H18.1099V52.848H14.3499ZM29.0659 49.968C29.0659 47.744 27.6099 46.112 25.4819 46.112C23.2579 46.112 21.6419 47.76 21.6419 50.112C21.6419 52.496 23.2739 54.096 25.5779 54.096C27.1459 54.096 28.1219 53.504 28.7939 52.64L27.8819 51.872C27.4019 52.464 26.6659 52.912 25.6259 52.912C24.1539 52.912 23.1299 51.952 22.9539 50.496H29.0339C29.0339 50.4 29.0659 50.176 29.0659 49.968ZM25.4659 47.296C26.7459 47.296 27.5779 48.16 27.7699 49.44H22.9859C23.2259 48.112 24.2179 47.296 25.4659 47.296ZM31.9956 46.208C31.9636 47.536 31.9156 49.312 31.7876 50.528C31.6116 52.064 31.0996 52.864 30.2996 52.864C30.1396 52.864 30.0276 52.848 29.9316 52.832L29.8356 53.952C29.9956 54.016 30.2516 54.064 30.5236 54.064C31.9156 54.064 32.7156 53.072 33.0036 50.944C33.1316 49.92 33.1956 48.64 33.2596 47.36H36.0116V54H37.3076V46.208H31.9956ZM43.0273 54.096C44.2913 54.096 45.2513 53.52 45.8113 52.592H45.8273V54H47.0753V46.208H45.7793V47.584L45.7473 47.6C45.1873 46.656 44.1793 46.112 43.0273 46.112C40.8193 46.112 39.2353 47.856 39.2353 50.16C39.2353 52.528 40.8832 54.096 43.0273 54.096ZM43.2193 52.912C41.6193 52.912 40.5473 51.728 40.5473 50.16C40.5473 48.432 41.7473 47.296 43.2193 47.296C44.7553 47.296 45.8273 48.56 45.8273 50.16C45.8273 51.808 44.6593 52.912 43.2193 52.912ZM51.2115 54H52.5075V47.36H55.1155V46.208H48.6035V47.36H51.2115V54ZM56.7316 54H59.8036C62.0276 54 62.9076 52.96 62.9076 51.408C62.9076 49.84 62.0916 48.816 59.9156 48.816H58.0276V46.208H56.7316V54ZM58.0276 52.88V49.904H59.8676C61.0196 49.904 61.5796 50.416 61.5796 51.424C61.5796 52.368 61.0036 52.88 59.8196 52.88H58.0276ZM71.6209 54.096C73.7649 54.096 74.9489 53.184 74.9489 51.84C74.9489 50.736 74.1329 50.112 73.2369 49.904V49.888C74.0689 49.6 74.5489 48.912 74.5489 48.096C74.5489 46.848 73.3969 46.112 71.5729 46.112C70.2769 46.112 69.2369 46.512 68.7089 46.816L69.2049 47.872C69.8289 47.52 70.6449 47.28 71.5889 47.28C72.5809 47.28 73.2529 47.6 73.2529 48.416C73.2529 49.136 72.7249 49.52 71.7009 49.52H70.1489V50.56H71.9089C72.9809 50.56 73.6209 50.928 73.6209 51.68C73.6209 52.496 72.8529 52.944 71.6209 52.944C70.5329 52.944 69.5569 52.624 68.8369 52.112L68.4369 53.28C69.0609 53.68 70.1009 54.096 71.6209 54.096ZM80.0898 54.096C81.3538 54.096 82.3138 53.52 82.8738 52.592H82.8898V54H84.1378V46.208H82.8418V47.584L82.8098 47.6C82.2498 46.656 81.2418 46.112 80.0898 46.112C77.8818 46.112 76.2978 47.856 76.2978 50.16C76.2978 52.528 77.9457 54.096 80.0898 54.096ZM80.2818 52.912C78.6818 52.912 77.6098 51.728 77.6098 50.16C77.6098 48.432 78.8098 47.296 80.2818 47.296C81.8178 47.296 82.8898 48.56 82.8898 50.16C82.8898 51.808 81.7218 52.912 80.2818 52.912ZM86.466 54H87.762V51.952L89.266 50.352L91.954 54H93.49L90.194 49.568L93.314 46.208H91.714L87.794 50.464H87.762V46.208H86.466V54ZM97.9491 54.096C99.2131 54.096 100.173 53.52 100.733 52.592H100.749V54H101.997V46.208H100.701V47.584L100.669 47.6C100.109 46.656 99.1011 46.112 97.9491 46.112C95.7411 46.112 94.1571 47.856 94.1571 50.16C94.1571 52.528 95.8051 54.096 97.9491 54.096ZM98.1411 52.912C96.5411 52.912 95.4691 51.728 95.4691 50.16C95.4691 48.432 96.6691 47.296 98.1411 47.296C99.6771 47.296 100.749 48.56 100.749 50.16C100.749 51.808 99.5811 52.912 98.1411 52.912ZM106.933 54.096C109.077 54.096 110.261 53.184 110.261 51.84C110.261 50.736 109.445 50.112 108.549 49.904V49.888C109.381 49.6 109.861 48.912 109.861 48.096C109.861 46.848 108.709 46.112 106.885 46.112C105.589 46.112 104.549 46.512 104.021 46.816L104.517 47.872C105.141 47.52 105.957 47.28 106.901 47.28C107.893 47.28 108.565 47.6 108.565 48.416C108.565 49.136 108.037 49.52 107.013 49.52H105.461V50.56H107.221C108.293 50.56 108.933 50.928 108.933 51.68C108.933 52.496 108.165 52.944 106.933 52.944C105.845 52.944 104.869 52.624 104.149 52.112L103.749 53.28C104.373 53.68 105.413 54.096 106.933 54.096ZM1.408 92H2.8V87.232H8.736V92H10.128V80.64H8.736V85.968H2.8V80.64H1.408V92ZM16.2833 92.096C18.5873 92.096 20.2993 90.48 20.2993 88.112C20.2993 85.744 18.5873 84.112 16.2833 84.112C13.8673 84.112 12.2513 85.872 12.2513 88.112C12.2513 90.352 13.8673 92.096 16.2833 92.096ZM16.2833 90.912C14.6673 90.912 13.5793 89.664 13.5793 88.112C13.5793 86.56 14.6513 85.296 16.2833 85.296C17.7873 85.296 18.9713 86.448 18.9713 88.112C18.9713 89.776 17.7713 90.912 16.2833 90.912ZM22.2316 92H25.9756C28.1036 92 28.9036 91.12 28.9036 89.824C28.9036 88.752 28.1836 88.112 27.2236 87.92V87.904C28.0876 87.632 28.5036 87.024 28.5036 86.112C28.5036 84.848 27.5596 84.208 25.8636 84.208H22.2316V92ZM23.4956 87.504V85.312H25.7996C26.6636 85.312 27.2236 85.6 27.2236 86.368C27.2236 87.136 26.7276 87.504 25.7516 87.504H23.4956ZM23.4956 90.896V88.544H25.9596C26.9996 88.544 27.5756 88.928 27.5756 89.712C27.5756 90.528 27.0316 90.896 25.8796 90.896H23.4956ZM34.2989 92.096C36.6029 92.096 38.3149 90.48 38.3149 88.112C38.3149 85.744 36.6029 84.112 34.2989 84.112C31.8829 84.112 30.2669 85.872 30.2669 88.112C30.2669 90.352 31.8829 92.096 34.2989 92.096ZM34.2989 90.912C32.6829 90.912 31.5949 89.664 31.5949 88.112C31.5949 86.56 32.6669 85.296 34.2989 85.296C35.8029 85.296 36.9869 86.448 36.9869 88.112C36.9869 89.776 35.7869 90.912 34.2989 90.912ZM43.6393 92.096C45.1593 92.096 46.1993 91.52 46.8553 90.736L45.9593 89.92C45.4793 90.512 44.6633 90.912 43.7352 90.912C42.1513 90.912 41.0793 89.776 41.0793 88.112C41.0793 86.464 42.1513 85.296 43.7513 85.296C44.6793 85.296 45.4473 85.712 45.9433 86.288L46.8233 85.504C46.0553 84.592 44.8553 84.112 43.6873 84.112C41.3673 84.112 39.7513 85.76 39.7513 88.112C39.7513 90.48 41.3673 92.096 43.6393 92.096ZM50.399 92H51.695V85.36H54.303V84.208H47.791V85.36H50.399V92ZM55.9191 92H57.1671L61.5511 86.208H61.5831V92H62.8791V84.208H61.6471L57.2471 90.128H57.2151V84.208H55.9191V92ZM69.6691 92H70.9171L75.3011 86.208H75.3331V92H76.6291V84.208H75.3971L70.9971 90.128H70.9651V84.208H69.6691V92ZM86.6991 92.096C87.9631 92.096 88.9231 91.52 89.4831 90.592H89.4991V92H90.7471V84.208H89.4511V85.584L89.4191 85.6C88.8591 84.656 87.8511 84.112 86.6991 84.112C84.4911 84.112 82.9071 85.856 82.9071 88.16C82.9071 90.528 84.5551 92.096 86.6991 92.096ZM86.8911 90.912C85.2911 90.912 84.2191 89.728 84.2191 88.16C84.2191 86.432 85.4191 85.296 86.8911 85.296C88.4271 85.296 89.4991 86.56 89.4991 88.16C89.4991 89.808 88.3311 90.912 86.8911 90.912ZM93.0754 92H94.3714V89.952L95.8754 88.352L98.5634 92H100.099L96.8034 87.568L99.9234 84.208H98.3234L94.4034 88.464H94.3714V84.208H93.0754V92ZM109.509 90.848H108.085V84.208H106.789V90.848H102.965V84.208H101.669V92H108.325L108.405 94.144H109.509V90.848ZM111.169 92H112.417L116.801 86.208H116.833V92H118.129V84.208H116.897L112.497 90.128H112.465V84.208H111.169V92ZM120.56 92H121.808L126.192 86.208H126.224V92H127.52V84.208H126.288L121.888 90.128H121.856V84.208H120.56V92ZM6.624 130.096C9.808 130.096 12.288 127.776 12.288 124.32C12.288 120.848 9.808 118.528 6.624 118.528C3.312 118.528 0.912 120.944 0.912 124.32C0.912 127.696 3.312 130.096 6.624 130.096ZM6.624 128.784C4.16 128.784 2.368 126.88 2.368 124.32C2.368 121.744 4.16 119.84 6.624 119.84C8.976 119.84 10.832 121.68 10.832 124.32C10.832 126.944 8.976 128.784 6.624 128.784ZM18.2911 130.096C20.3871 130.096 22.1311 128.432 22.1311 126.08C22.1311 123.776 20.4671 122.176 18.4671 122.176C16.9151 122.176 15.9391 122.992 15.4271 124.016L15.3951 124C15.5711 121.696 15.8431 120.304 18.4031 119.84L21.5231 119.28L21.1551 118.128L18.1471 118.656C14.7071 119.264 14.2271 121.632 14.2271 125.024C14.2111 127.952 15.4431 130.096 18.2911 130.096ZM18.2431 128.928C16.4031 128.928 15.5551 127.328 15.5551 125.968C15.5711 124.736 16.5151 123.344 18.1951 123.344C19.6511 123.344 20.8191 124.496 20.8191 126.08C20.8191 127.76 19.6031 128.928 18.2431 128.928ZM24.0285 133.168H25.3245V128.656H25.3405C25.9165 129.552 26.8765 130.096 28.1085 130.096C30.2525 130.096 31.9005 128.528 31.9005 126.16C31.9005 123.856 30.3165 122.112 28.1085 122.112C26.9245 122.112 25.9325 122.656 25.3405 123.584H25.3245V122.208H24.0285V133.168ZM27.9325 128.912C26.4445 128.912 25.2605 127.808 25.2605 126.16C25.2605 124.56 26.3325 123.296 27.9165 123.296C29.3885 123.296 30.5885 124.432 30.5885 126.16C30.5885 127.728 29.5005 128.912 27.9325 128.912ZM37.1366 130.096C38.4006 130.096 39.3606 129.52 39.9206 128.592H39.9366V130H41.1846V122.208H39.8886V123.584L39.8566 123.6C39.2966 122.656 38.2886 122.112 37.1366 122.112C34.9286 122.112 33.3446 123.856 33.3446 126.16C33.3446 128.528 34.9926 130.096 37.1366 130.096ZM37.3286 128.912C35.7286 128.912 34.6566 127.728 34.6566 126.16C34.6566 124.432 35.8566 123.296 37.3286 123.296C38.8646 123.296 39.9366 124.56 39.9366 126.16C39.9366 127.808 38.7686 128.912 37.3286 128.912ZM45.3209 130H46.6169V123.36H49.2249V122.208H42.7129V123.36H45.3209V130ZM50.841 130H52.137V126.752H56.345V130H57.641V122.208H56.345V125.632H52.137V122.208H50.841V130ZM63.3554 130.096C64.6194 130.096 65.5794 129.52 66.1394 128.592H66.1554V130H67.4034V122.208H66.1074V123.584L66.0754 123.6C65.5154 122.656 64.5074 122.112 63.3554 122.112C61.1474 122.112 59.5634 123.856 59.5634 126.16C59.5634 128.528 61.2114 130.096 63.3554 130.096ZM63.5474 128.912C61.9474 128.912 60.8754 127.728 60.8754 126.16C60.8754 124.432 62.0754 123.296 63.5474 123.296C65.0834 123.296 66.1554 124.56 66.1554 126.16C66.1554 127.808 64.9874 128.912 63.5474 128.912ZM72.4516 122.208C70.4036 122.208 69.4116 123.216 69.4116 124.768C69.4116 125.92 70.0516 126.768 71.2516 127.072L69.1236 130H70.5956L72.6116 127.2H74.5956V130H75.8916V122.208H72.4516ZM74.5956 126.08H72.3716C71.2036 126.08 70.7236 125.552 70.7236 124.768C70.7236 123.824 71.2836 123.328 72.4356 123.328H74.5956V126.08ZM86.0768 130.096C87.5968 130.096 88.6368 129.52 89.2928 128.736L88.3968 127.92C87.9168 128.512 87.1008 128.912 86.1727 128.912C84.5888 128.912 83.5168 127.776 83.5168 126.112C83.5168 124.464 84.5888 123.296 86.1888 123.296C87.1168 123.296 87.8848 123.712 88.3808 124.288L89.2608 123.504C88.4928 122.592 87.2928 122.112 86.1248 122.112C83.8048 122.112 82.1888 123.76 82.1888 126.112C82.1888 128.48 83.8048 130.096 86.0768 130.096ZM91.0285 130H94.7725C96.9005 130 97.7005 129.12 97.7005 127.824C97.7005 126.752 96.9805 126.112 96.0205 125.92V125.904C96.8845 125.632 97.3005 125.024 97.3005 124.112C97.3005 122.848 96.3565 122.208 94.6605 122.208H91.0285V130ZM92.2925 125.504V123.312H94.5965C95.4605 123.312 96.0205 123.6 96.0205 124.368C96.0205 125.136 95.5245 125.504 94.5485 125.504H92.2925ZM92.2925 128.896V126.544H94.7565C95.7965 126.544 96.3725 126.928 96.3725 127.712C96.3725 128.528 95.8285 128.896 94.6765 128.896H92.2925ZM102.327 122.208C100.279 122.208 99.2866 123.216 99.2866 124.768C99.2866 125.92 99.9266 126.768 101.127 127.072L98.9986 130H100.471L102.487 127.2H104.471V130H105.767V122.208H102.327ZM104.471 126.08H102.247C101.079 126.08 100.599 125.552 100.599 124.768C100.599 123.824 101.159 123.328 102.311 123.328H104.471V126.08ZM110.808 130.096C112.952 130.096 114.136 129.184 114.136 127.84C114.136 126.736 113.32 126.112 112.424 125.904V125.888C113.256 125.6 113.736 124.912 113.736 124.096C113.736 122.848 112.584 122.112 110.76 122.112C109.464 122.112 108.424 122.512 107.896 122.816L108.392 123.872C109.016 123.52 109.832 123.28 110.776 123.28C111.768 123.28 112.44 123.6 112.44 124.416C112.44 125.136 111.912 125.52 110.888 125.52H109.336V126.56H111.096C112.168 126.56 112.808 126.928 112.808 127.68C112.808 128.496 112.04 128.944 110.808 128.944C109.72 128.944 108.744 128.624 108.024 128.112L107.624 129.28C108.248 129.68 109.288 130.096 110.808 130.096ZM116.044 130H119.116C121.34 130 122.22 128.96 122.22 127.408C122.22 125.84 121.404 124.816 119.228 124.816H117.34V122.208H116.044V130ZM117.34 128.88V125.904H119.18C120.332 125.904 120.892 126.416 120.892 127.424C120.892 128.368 120.316 128.88 119.132 128.88H117.34ZM1.408 168H2.8V164.848L4.448 162.912L8.144 168H9.888L5.376 161.824L9.776 156.64H7.984L2.832 162.864H2.8V156.64H1.408V168ZM14.502 168.096C16.806 168.096 18.518 166.48 18.518 164.112C18.518 161.744 16.806 160.112 14.502 160.112C12.086 160.112 10.47 161.872 10.47 164.112C10.47 166.352 12.086 168.096 14.502 168.096ZM14.502 166.912C12.886 166.912 11.798 165.664 11.798 164.112C11.798 162.56 12.87 161.296 14.502 161.296C16.006 161.296 17.19 162.448 17.19 164.112C17.19 165.776 15.99 166.912 14.502 166.912ZM20.4504 168H21.7464V164.752H25.9544V168H27.2504V160.208H25.9544V163.632H21.7464V160.208H20.4504V168ZM31.4928 168H32.7888V161.36H35.3968V160.208H28.8848V161.36H31.4928V168ZM40.0273 168.096C41.2913 168.096 42.2513 167.52 42.8113 166.592H42.8273V168H44.0753V160.208H42.7793V161.584L42.7473 161.6C42.1873 160.656 41.1793 160.112 40.0273 160.112C37.8193 160.112 36.2353 161.856 36.2353 164.16C36.2353 166.528 37.8832 168.096 40.0273 168.096ZM40.2193 166.912C38.6193 166.912 37.5473 165.728 37.5473 164.16C37.5473 162.432 38.7473 161.296 40.2193 161.296C41.7553 161.296 42.8273 162.56 42.8273 164.16C42.8273 165.808 41.6593 166.912 40.2193 166.912ZM46.4035 168H47.6995V165.952L49.2035 164.352L51.8915 168H53.4275L50.1315 163.568L53.2515 160.208H51.6515L47.7315 164.464H47.6995V160.208H46.4035V168ZM56.7115 168H58.0075V161.36H60.6155V160.208H54.1035V161.36H56.7115V168ZM62.2316 168H65.1596C67.3836 168 68.2476 166.96 68.2476 165.408C68.2476 163.824 67.4476 162.8 65.2716 162.8H63.5276V160.208H62.2316V168ZM69.7196 168H71.0156V160.208H69.7196V168ZM63.5276 166.88V163.904H65.2236C66.3596 163.904 66.9356 164.4 66.9356 165.424C66.9356 166.368 66.3596 166.88 65.1596 166.88H63.5276Z" fill="black"/>
<circle cx="256" cy="48" r="10" fill="#3980FF"/>
<path fill-rule="evenodd" clip-rule="evenodd" d="M259.707 45.2929C260.098 45.6834 260.098 46.3166 259.707 46.7071L255.707 50.7071C255.317 51.0976 254.683 51.0976 254.293 50.7071L252.293 48.7071C251.902 48.3166 251.902 47.6834 252.293 47.2929C252.683 46.9024 253.317 46.9024 253.707 47.2929L255 48.5858L258.293 45.2929C258.683 44.9024 259.317 44.9024 259.707 45.2929Z" fill="white"/>
<circle cx="256" cy="85" r="10" fill="#3980FF"/>
<path fill-rule="evenodd" clip-rule="evenodd" d="M259.707 82.2929C260.098 82.6834 260.098 83.3166 259.707 83.7071L255.707 87.7071C255.317 88.0976 254.683 88.0976 254.293 87.7071L252.293 85.7071C251.902 85.3166 251.902 84.6834 252.293 84.2929C252.683 83.9024 253.317 83.9024 253.707 84.2929L255 85.5858L258.293 82.2929C258.683 81.9024 259.317 81.9024 259.707 82.2929Z" fill="white"/>
<circle cx="256" cy="122" r="10" fill="#3980FF"/>
<path fill-rule="evenodd" clip-rule="evenodd" d="M259.707 119.293C260.098 119.683 260.098 120.317 259.707 120.707L255.707 124.707C255.317 125.098 254.683 125.098 254.293 124.707L252.293 122.707C251.902 122.317 251.902 121.683 252.293 121.293C252.683 120.902 253.317 120.902 253.707 121.293L255 122.586L258.293 119.293C258.683 118.902 259.317 118.902 259.707 119.293Z" fill="white"/>
<circle cx="256" cy="159" r="10" fill="#3980FF"/>
<path fill-rule="evenodd" clip-rule="evenodd" d="M259.707 156.293C260.098 156.683 260.098 157.317 259.707 157.707L255.707 161.707C255.317 162.098 254.683 162.098 254.293 161.707L252.293 159.707C251.902 159.317 251.902 158.683 252.293 158.293C252.683 157.902 253.317 157.902 253.707 158.293L255 159.586L258.293 156.293C258.683 155.902 259.317 155.902 259.707 156.293Z" fill="white"/>
<circle cx="256" cy="11" r="10" fill="#3980FF"/>
<path fill-rule="evenodd" clip-rule="evenodd" d="M259.707 8.29289C260.098 8.68342 260.098 9.31658 259.707 9.70711L255.707 13.7071C255.317 14.0976 254.683 14.0976 254.293 13.7071L252.293 11.7071C251.902 11.3166 251.902 10.6834 252.293 10.2929C252.683 9.90237 253.317 9.90237 253.707 10.2929L255 11.5858L258.293 8.29289C258.683 7.90237 259.317 7.90237 259.707 8.29289Z" fill="white"/>
</svg>
