<svg width="266" height="172" viewBox="0 0 266 172" fill="none" xmlns="http://www.w3.org/2000/svg">
<path d="M1.408 16H2.8V5.904H8.336V16H9.744V4.64H1.408V16ZM12.3566 19.168H13.6526V14.656H13.6686C14.2446 15.552 15.2046 16.096 16.4366 16.096C18.5806 16.096 20.2286 14.528 20.2286 12.16C20.2286 9.856 18.6446 8.112 16.4366 8.112C15.2526 8.112 14.2606 8.656 13.6686 9.584H13.6526V8.208H12.3566V19.168ZM16.2606 14.912C14.7726 14.912 13.5886 13.808 13.5886 12.16C13.5886 10.56 14.6606 9.296 16.2446 9.296C17.7166 9.296 18.9166 10.432 18.9166 12.16C18.9166 13.728 17.8286 14.912 16.2606 14.912ZM25.7208 16.096C28.0248 16.096 29.7368 14.48 29.7368 12.112C29.7368 9.744 28.0248 8.112 25.7208 8.112C23.3048 8.112 21.6888 9.872 21.6888 12.112C21.6888 14.352 23.3048 16.096 25.7208 16.096ZM25.7208 14.912C24.1048 14.912 23.0168 13.664 23.0168 12.112C23.0168 10.56 24.0888 9.296 25.7208 9.296C27.2248 9.296 28.4088 10.448 28.4088 12.112C28.4088 13.776 27.2088 14.912 25.7208 14.912ZM31.6691 16H32.9651V9.36H37.0131V8.208H31.6691V16ZM38.6535 19.168H39.9495V14.656H39.9655C40.5415 15.552 41.5015 16.096 42.7335 16.096C44.8775 16.096 46.5255 14.528 46.5255 12.16C46.5255 9.856 44.9415 8.112 42.7335 8.112C41.5495 8.112 40.5575 8.656 39.9655 9.584H39.9495V8.208H38.6535V19.168ZM42.5575 14.912C41.0695 14.912 39.8855 13.808 39.8855 12.16C39.8855 10.56 40.9575 9.296 42.5415 9.296C44.0135 9.296 45.2135 10.432 45.2135 12.16C45.2135 13.728 44.1255 14.912 42.5575 14.912ZM51.7616 16.096C53.0256 16.096 53.9856 15.52 54.5456 14.592H54.5616V16H55.8096V8.208H54.5136V9.584L54.4816 9.6C53.9216 8.656 52.9136 8.112 51.7616 8.112C49.5536 8.112 47.9696 9.856 47.9696 12.16C47.9696 14.528 49.6176 16.096 51.7616 16.096ZM51.9536 14.912C50.3536 14.912 49.2816 13.728 49.2816 12.16C49.2816 10.432 50.4816 9.296 51.9536 9.296C53.4896 9.296 54.5616 10.56 54.5616 12.16C54.5616 13.808 53.3936 14.912 51.9536 14.912ZM58.1379 16H59.3859V10.416H59.4179L61.8979 14.64H62.7779L65.2739 10.4H65.3059V16H66.5539V8.208H65.3059L62.3619 13.2H62.3299L59.4019 8.208H58.1379V16ZM68.9816 16H70.2296V10.416H70.2616L72.7416 14.64H73.6216L76.1176 10.4H76.1496V16H77.3976V8.208H76.1496L73.2056 13.2H73.1736L70.2456 8.208H68.9816V16ZM83.1054 16.096C84.3694 16.096 85.3294 15.52 85.8894 14.592H85.9054V16H87.1534V8.208H85.8574V9.584L85.8254 9.6C85.2654 8.656 84.2574 8.112 83.1054 8.112C80.8974 8.112 79.3134 9.856 79.3134 12.16C79.3134 14.528 80.9614 16.096 83.1054 16.096ZM83.2974 14.912C81.6974 14.912 80.6254 13.728 80.6254 12.16C80.6254 10.432 81.8254 9.296 83.2974 9.296C84.8334 9.296 85.9054 10.56 85.9054 12.16C85.9054 13.808 84.7374 14.912 83.2974 14.912ZM95.105 8.208C95.073 9.536 95.025 11.312 94.897 12.528C94.721 14.064 94.209 14.864 93.409 14.864C93.249 14.864 93.137 14.848 93.041 14.832L92.945 15.952C93.105 16.016 93.361 16.064 93.633 16.064C95.025 16.064 95.825 15.072 96.113 12.944C96.241 11.92 96.305 10.64 96.369 9.36H99.121V16H100.417V8.208H95.105ZM106.393 16.096C108.697 16.096 110.409 14.48 110.409 12.112C110.409 9.744 108.697 8.112 106.393 8.112C103.977 8.112 102.361 9.872 102.361 12.112C102.361 14.352 103.977 16.096 106.393 16.096ZM106.393 14.912C104.777 14.912 103.689 13.664 103.689 12.112C103.689 10.56 104.761 9.296 106.393 9.296C107.897 9.296 109.081 10.448 109.081 12.112C109.081 13.776 107.881 14.912 106.393 14.912ZM114.92 8.208C112.872 8.208 111.88 9.216 111.88 10.768C111.88 11.92 112.52 12.768 113.72 13.072L111.592 16H113.064L115.08 13.2H117.064V16H118.36V8.208H114.92ZM117.064 12.08H114.84C113.672 12.08 113.192 11.552 113.192 10.768C113.192 9.824 113.752 9.328 114.904 9.328H117.064V12.08ZM122.058 8.208C122.026 9.536 121.978 11.312 121.85 12.528C121.674 14.064 121.162 14.864 120.362 14.864C120.202 14.864 120.09 14.848 119.994 14.832L119.898 15.952C120.058 16.016 120.314 16.064 120.586 16.064C121.978 16.064 122.778 15.072 123.066 12.944C123.194 11.92 123.258 10.64 123.322 9.36H126.074V16H127.37V8.208H122.058ZM129.81 16H132.882C135.106 16 135.986 14.96 135.986 13.408C135.986 11.84 135.17 10.816 132.994 10.816H131.106V8.208H129.81V16ZM131.106 14.88V11.904H132.946C134.098 11.904 134.658 12.416 134.658 13.424C134.658 14.368 134.082 14.88 132.898 14.88H131.106ZM137.732 16H139.028V12.752H143.236V16H144.532V8.208H143.236V11.632H139.028V8.208H137.732V16ZM150.502 16.096C152.806 16.096 154.518 14.48 154.518 12.112C154.518 9.744 152.806 8.112 150.502 8.112C148.086 8.112 146.47 9.872 146.47 12.112C146.47 14.352 148.086 16.096 150.502 16.096ZM150.502 14.912C148.886 14.912 147.798 13.664 147.798 12.112C147.798 10.56 148.87 9.296 150.502 9.296C152.006 9.296 153.19 10.448 153.19 12.112C153.19 13.776 151.99 14.912 150.502 14.912ZM159.842 16.096C161.362 16.096 162.402 15.52 163.058 14.736L162.162 13.92C161.682 14.512 160.866 14.912 159.938 14.912C158.354 14.912 157.282 13.776 157.282 12.112C157.282 10.464 158.354 9.296 159.954 9.296C160.882 9.296 161.65 9.712 162.146 10.288L163.026 9.504C162.258 8.592 161.058 8.112 159.89 8.112C157.57 8.112 155.954 9.76 155.954 12.112C155.954 14.48 157.57 16.096 159.842 16.096ZM166.602 16H167.898V9.36H170.506V8.208H163.994V9.36H166.602V16ZM172.122 16H173.37L177.754 10.208H177.786V16H179.082V8.208H177.85L173.45 14.128H173.418V8.208H172.122V16ZM1.408 54H2.8V49.664H5.136C7.504 49.664 9.136 48.56 9.136 46.16C9.136 44.144 8.032 42.64 5.376 42.64H1.408V54ZM2.8 48.4V43.904H5.232C6.752 43.904 7.696 44.672 7.696 46.128C7.696 47.44 6.896 48.4 5.008 48.4H2.8ZM13.7805 54.096C14.8045 54.096 15.7645 53.584 16.3565 52.656H16.3725V54H17.6685V46.208H16.3725V49.984C16.3725 51.84 15.3005 52.912 14.0525 52.912C12.8205 52.912 12.1485 52.24 12.1485 50.48V46.208H10.8525V50.848C10.8525 53.072 11.9885 54.096 13.7805 54.096ZM22.3649 54.096C24.2369 54.096 25.1649 53.088 25.1649 51.872C25.1809 50.352 24.0929 50.064 22.4449 49.424C21.5969 49.12 20.9729 48.816 20.9729 48.208C20.9729 47.616 21.5649 47.264 22.1729 47.264C22.8449 47.264 23.5649 47.472 24.2369 48.096L24.9089 47.072C24.0449 46.368 23.1649 46.112 22.2209 46.112C20.7489 46.112 19.6609 47.008 19.6609 48.208C19.6609 49.632 20.7329 50.144 21.9969 50.592C23.1329 51.008 23.8529 51.2 23.8529 51.888C23.8529 52.48 23.3089 52.944 22.3649 52.944C21.2769 52.944 20.5889 52.592 19.9809 52L19.3249 52.992C20.0769 53.648 21.0689 54.096 22.3649 54.096ZM26.9973 54H28.2933V50.08C28.2933 48.32 29.2533 47.296 30.8053 47.296C31.9413 47.296 32.7253 47.936 32.7253 49.696V54H34.0213V49.328C34.0213 47.104 32.8693 46.112 31.1893 46.112C29.9413 46.112 28.9173 46.64 28.3093 47.568H28.2933V42.224H26.9973V54ZM41.7095 57.168H43.0535L47.4695 46.208H46.1095L43.7575 52.128H43.7255L41.1975 46.208H39.7895L43.1015 53.696L41.7095 57.168ZM49.0598 54H52.8038C54.9318 54 55.7318 53.12 55.7318 51.824C55.7318 50.752 55.0118 50.112 54.0518 49.92V49.904C54.9158 49.632 55.3318 49.024 55.3318 48.112C55.3318 46.848 54.3878 46.208 52.6918 46.208H49.0598V54ZM50.3238 49.504V47.312H52.6278C53.4918 47.312 54.0518 47.6 54.0518 48.368C54.0518 49.136 53.5558 49.504 52.5798 49.504H50.3238ZM50.3238 52.896V50.544H52.7878C53.8278 50.544 54.4038 50.928 54.4038 51.712C54.4038 52.528 53.8598 52.896 52.7078 52.896H50.3238ZM64.519 49.968C64.519 47.744 63.063 46.112 60.935 46.112C58.711 46.112 57.095 47.76 57.095 50.112C57.095 52.496 58.727 54.096 61.031 54.096C62.599 54.096 63.575 53.504 64.247 52.64L63.335 51.872C62.855 52.464 62.119 52.912 61.079 52.912C59.607 52.912 58.583 51.952 58.407 50.496H64.487C64.487 50.4 64.519 50.176 64.519 49.968ZM60.919 47.296C62.199 47.296 63.031 48.16 63.223 49.44H58.439C58.679 48.112 59.671 47.296 60.919 47.296ZM74.2034 52.848H72.8434V46.208H67.7554C67.7394 47.456 67.6754 48.736 67.4514 49.952C67.2754 50.992 66.9554 51.984 66.4434 52.848H65.2114V56.144H66.2994L66.3794 54H73.0194L73.0994 56.144H74.2034V52.848ZM67.7874 52.848C68.1874 52.112 68.4754 51.264 68.6674 50.336C68.8914 49.328 68.9554 48.288 68.9874 47.36H71.5474V52.848H67.7874ZM79.1114 54.096C81.4154 54.096 83.1274 52.48 83.1274 50.112C83.1274 47.744 81.4154 46.112 79.1114 46.112C76.6954 46.112 75.0794 47.872 75.0794 50.112C75.0794 52.352 76.6954 54.096 79.1114 54.096ZM79.1114 52.912C77.4954 52.912 76.4074 51.664 76.4074 50.112C76.4074 48.56 77.4794 47.296 79.1114 47.296C80.6154 47.296 81.7994 48.448 81.7994 50.112C81.7994 51.776 80.5994 52.912 79.1114 52.912ZM85.0598 54H86.3078V48.416H86.3398L88.8198 52.64H89.6998L92.1958 48.4H92.2278V54H93.4758V46.208H92.2278L89.2838 51.2H89.2518L86.3238 46.208H85.0598V54ZM97.1675 46.208C97.1355 47.536 97.0875 49.312 96.9595 50.528C96.7835 52.064 96.2715 52.864 95.4715 52.864C95.3115 52.864 95.1995 52.848 95.1035 52.832L95.0075 53.952C95.1675 54.016 95.4235 54.064 95.6955 54.064C97.0875 54.064 97.8875 53.072 98.1755 50.944C98.3035 49.92 98.3675 48.64 98.4315 47.36H101.184V54H102.48V46.208H97.1675ZM111.847 49.968C111.847 47.744 110.391 46.112 108.263 46.112C106.039 46.112 104.423 47.76 104.423 50.112C104.423 52.496 106.055 54.096 108.359 54.096C109.927 54.096 110.903 53.504 111.575 52.64L110.663 51.872C110.183 52.464 109.447 52.912 108.407 52.912C106.935 52.912 105.911 51.952 105.735 50.496H111.815C111.815 50.4 111.847 50.176 111.847 49.968ZM108.247 47.296C109.527 47.296 110.359 48.16 110.551 49.44H105.767C106.007 48.112 106.999 47.296 108.247 47.296ZM113.747 54H115.043V50.752H119.251V54H120.547V46.208H119.251V49.632H115.043V46.208H113.747V54ZM122.982 54H124.23L128.614 48.208H128.646V54H129.942V46.208H128.71L124.31 52.128H124.278V46.208H122.982V54ZM135.092 46.208C133.044 46.208 132.052 47.216 132.052 48.768C132.052 49.92 132.692 50.768 133.892 51.072L131.764 54H133.236L135.252 51.2H137.236V54H138.532V46.208H135.092ZM137.236 50.08H135.012C133.844 50.08 133.364 49.552 133.364 48.768C133.364 47.824 133.924 47.328 135.076 47.328H137.236V50.08ZM6.576 92.08C8.576 92.08 10.016 91.168 11.008 89.936L9.968 89.056C9.168 90.064 8.048 90.768 6.576 90.768C4.176 90.768 2.368 89.072 2.368 86.352C2.368 83.744 3.984 81.856 6.56 81.856C7.84 81.856 9.008 82.4 9.952 83.568L10.992 82.704C9.792 81.232 8.192 80.528 6.56 80.528C2.928 80.528 0.912 83.136 0.912 86.352C0.912 90.064 3.504 92.08 6.576 92.08ZM19.7221 87.968C19.7221 85.744 18.2661 84.112 16.1381 84.112C13.9141 84.112 12.2981 85.76 12.2981 88.112C12.2981 90.496 13.9301 92.096 16.2341 92.096C17.8021 92.096 18.7781 91.504 19.4501 90.64L18.5381 89.872C18.0581 90.464 17.3221 90.912 16.2821 90.912C14.8101 90.912 13.7861 89.952 13.6101 88.496H19.6901C19.6901 88.4 19.7221 88.176 19.7221 87.968ZM16.1221 85.296C17.4021 85.296 18.2341 86.16 18.4261 87.44H13.6421C13.8821 86.112 14.8741 85.296 16.1221 85.296ZM21.6223 95.168H22.9183V90.656H22.9343C23.5103 91.552 24.4703 92.096 25.7023 92.096C27.8463 92.096 29.4943 90.528 29.4943 88.16C29.4943 85.856 27.9103 84.112 25.7023 84.112C24.5182 84.112 23.5263 84.656 22.9343 85.584H22.9183V84.208H21.6223V95.168ZM25.5263 90.912C24.0383 90.912 22.8543 89.808 22.8543 88.16C22.8543 86.56 23.9263 85.296 25.5103 85.296C26.9823 85.296 28.1823 86.432 28.1823 88.16C28.1823 89.728 27.0943 90.912 25.5263 90.912ZM31.4504 92H35.1944C37.3224 92 38.1224 91.12 38.1224 89.824C38.1224 88.752 37.4024 88.112 36.4424 87.92V87.904C37.3064 87.632 37.7224 87.024 37.7224 86.112C37.7224 84.848 36.7784 84.208 35.0824 84.208H31.4504V92ZM32.7144 87.504V85.312H35.0184C35.8824 85.312 36.4424 85.6 36.4424 86.368C36.4424 87.136 35.9464 87.504 34.9704 87.504H32.7144ZM32.7144 90.896V88.544H35.1784C36.2184 88.544 36.7944 88.928 36.7944 89.712C36.7944 90.528 36.2504 90.896 35.0984 90.896H32.7144ZM46.9096 87.968C46.9096 85.744 45.4536 84.112 43.3256 84.112C41.1016 84.112 39.4856 85.76 39.4856 88.112C39.4856 90.496 41.1176 92.096 43.4216 92.096C44.9896 92.096 45.9656 91.504 46.6376 90.64L45.7256 89.872C45.2456 90.464 44.5096 90.912 43.4696 90.912C41.9976 90.912 40.9736 89.952 40.7976 88.496H46.8776C46.8776 88.4 46.9096 88.176 46.9096 87.968ZM43.3096 85.296C44.5896 85.296 45.4216 86.16 45.6136 87.44H40.8296C41.0696 86.112 42.0616 85.296 43.3096 85.296ZM48.8098 95.168H50.1058V90.656H50.1218C50.6978 91.552 51.6578 92.096 52.8898 92.096C55.0338 92.096 56.6818 90.528 56.6818 88.16C56.6818 85.856 55.0978 84.112 52.8898 84.112C51.7057 84.112 50.7138 84.656 50.1218 85.584H50.1058V84.208H48.8098V95.168ZM52.7138 90.912C51.2258 90.912 50.0418 89.808 50.0418 88.16C50.0418 86.56 51.1138 85.296 52.6978 85.296C54.1698 85.296 55.3698 86.432 55.3698 88.16C55.3698 89.728 54.2818 90.912 52.7138 90.912ZM58.6379 92H59.9339V88.752H64.1419V92H65.4379V84.208H64.1419V87.632H59.9339V84.208H58.6379V92ZM71.1523 92.096C72.4163 92.096 73.3763 91.52 73.9363 90.592H73.9523V92H75.2003V84.208H73.9043V85.584L73.8723 85.6C73.3123 84.656 72.3043 84.112 71.1523 84.112C68.9443 84.112 67.3603 85.856 67.3603 88.16C67.3603 90.528 69.0082 92.096 71.1523 92.096ZM71.3443 90.912C69.7443 90.912 68.6723 89.728 68.6723 88.16C68.6723 86.432 69.8723 85.296 71.3443 85.296C72.8803 85.296 73.9523 86.56 73.9523 88.16C73.9523 89.808 72.7843 90.912 71.3443 90.912ZM80.2485 84.208C78.2005 84.208 77.2085 85.216 77.2085 86.768C77.2085 87.92 77.8485 88.768 79.0485 89.072L76.9205 92H78.3925L80.4085 89.2H82.3925V92H83.6885V84.208H80.2485ZM82.3925 88.08H80.1685C79.0005 88.08 78.5205 87.552 78.5205 86.768C78.5205 85.824 79.0805 85.328 80.2325 85.328H82.3925V88.08ZM95.2656 84.208V87.856C94.6576 88.128 93.8896 88.32 93.1536 88.32C91.9856 88.32 91.2976 87.984 91.2976 86.288V84.208H90.0016V86.576C90.0016 88.592 90.8816 89.472 92.8176 89.472C93.5696 89.472 94.5776 89.264 95.2656 88.928V92H96.5616V84.208H95.2656ZM102.277 92.096C103.541 92.096 104.501 91.52 105.061 90.592H105.077V92H106.325V84.208H105.029V85.584L104.997 85.6C104.437 84.656 103.429 84.112 102.277 84.112C100.069 84.112 98.4853 85.856 98.4853 88.16C98.4853 90.528 100.133 92.096 102.277 92.096ZM102.469 90.912C100.869 90.912 99.7973 89.728 99.7973 88.16C99.7973 86.432 100.997 85.296 102.469 85.296C104.005 85.296 105.077 86.56 105.077 88.16C105.077 89.808 103.909 90.912 102.469 90.912ZM112.046 92.096C113.566 92.096 114.606 91.52 115.262 90.736L114.366 89.92C113.886 90.512 113.07 90.912 112.141 90.912C110.558 90.912 109.486 89.776 109.486 88.112C109.486 86.464 110.558 85.296 112.158 85.296C113.086 85.296 113.854 85.712 114.35 86.288L115.23 85.504C114.462 84.592 113.262 84.112 112.094 84.112C109.774 84.112 108.158 85.76 108.158 88.112C108.158 90.48 109.774 92.096 112.046 92.096ZM118.805 92H120.101V85.36H122.709V84.208H116.197V85.36H118.805V92ZM124.325 92H127.397C129.621 92 130.501 90.96 130.501 89.408C130.501 87.84 129.685 86.816 127.509 86.816H125.621V84.208H124.325V92ZM125.621 90.88V87.904H127.461C128.613 87.904 129.173 88.416 129.173 89.424C129.173 90.368 128.597 90.88 127.413 90.88H125.621ZM1.408 130H2.8V119.904H8.336V130H9.744V118.64H1.408V130ZM15.6366 130.096C16.9006 130.096 17.8606 129.52 18.4206 128.592H18.4366V130H19.6846V122.208H18.3886V123.584L18.3566 123.6C17.7966 122.656 16.7886 122.112 15.6366 122.112C13.4286 122.112 11.8446 123.856 11.8446 126.16C11.8446 128.528 13.4926 130.096 15.6366 130.096ZM15.8286 128.912C14.2286 128.912 13.1566 127.728 13.1566 126.16C13.1566 124.432 14.3566 123.296 15.8286 123.296C17.3646 123.296 18.4366 124.56 18.4366 126.16C18.4366 127.808 17.2686 128.912 15.8286 128.912ZM22.0129 130H23.3089V126.752H27.5169V130H28.8129V122.208H27.5169V125.632H23.3089V122.208H22.0129V130ZM38.1753 125.968C38.1753 123.744 36.7193 122.112 34.5913 122.112C32.3673 122.112 30.7513 123.76 30.7513 126.112C30.7513 128.496 32.3832 130.096 34.6873 130.096C36.2553 130.096 37.2313 129.504 37.9033 128.64L36.9913 127.872C36.5113 128.464 35.7753 128.912 34.7352 128.912C33.2633 128.912 32.2393 127.952 32.0633 126.496H38.1433C38.1433 126.4 38.1753 126.176 38.1753 125.968ZM34.5753 123.296C35.8553 123.296 36.6873 124.16 36.8793 125.44H32.0953C32.3353 124.112 33.3273 123.296 34.5753 123.296ZM41.105 122.208C41.073 123.536 41.025 125.312 40.897 126.528C40.721 128.064 40.209 128.864 39.409 128.864C39.249 128.864 39.137 128.848 39.041 128.832L38.945 129.952C39.105 130.016 39.361 130.064 39.633 130.064C41.025 130.064 41.825 129.072 42.113 126.944C42.241 125.92 42.305 124.64 42.369 123.36H45.121V130H46.417V122.208H41.105ZM48.8566 130H51.9286C54.1526 130 55.0326 128.96 55.0326 127.408C55.0326 125.84 54.2166 124.816 52.0406 124.816H50.1526V122.208H48.8566V130ZM50.1526 128.88V125.904H51.9926C53.1446 125.904 53.7046 126.416 53.7046 127.424C53.7046 128.368 53.1286 128.88 51.9446 128.88H50.1526ZM62.1939 133.168H63.5379L67.9539 122.208H66.5939L64.2419 128.128H64.2099L61.6819 122.208H60.2739L63.5859 129.696L62.1939 133.168ZM69.5441 130H70.8401V123.36H74.8721V130H76.1681V122.208H69.5441V130ZM78.6066 133.168H79.9026V128.656H79.9186C80.4946 129.552 81.4546 130.096 82.6866 130.096C84.8306 130.096 86.4786 128.528 86.4786 126.16C86.4786 123.856 84.8946 122.112 82.6866 122.112C81.5026 122.112 80.5106 122.656 79.9186 123.584H79.9026V122.208H78.6066V133.168ZM82.5106 128.912C81.0226 128.912 79.8386 127.808 79.8386 126.16C79.8386 124.56 80.9106 123.296 82.4946 123.296C83.9666 123.296 85.1666 124.432 85.1666 126.16C85.1666 127.728 84.0786 128.912 82.5106 128.912ZM91.7148 130.096C92.9788 130.096 93.9388 129.52 94.4988 128.592H94.5148V130H95.7628V122.208H94.4668V123.584L94.4348 123.6C93.8748 122.656 92.8668 122.112 91.7148 122.112C89.5068 122.112 87.9228 123.856 87.9228 126.16C87.9228 128.528 89.5707 130.096 91.7148 130.096ZM91.9068 128.912C90.3068 128.912 89.2348 127.728 89.2348 126.16C89.2348 124.432 90.4348 123.296 91.9068 123.296C93.4428 123.296 94.5148 124.56 94.5148 126.16C94.5148 127.808 93.3468 128.912 91.9068 128.912ZM98.091 130H101.835C103.963 130 104.763 129.12 104.763 127.824C104.763 126.752 104.043 126.112 103.083 125.92V125.904C103.947 125.632 104.363 125.024 104.363 124.112C104.363 122.848 103.419 122.208 101.723 122.208H98.091V130ZM99.355 125.504V123.312H101.659C102.523 123.312 103.083 123.6 103.083 124.368C103.083 125.136 102.587 125.504 101.611 125.504H99.355ZM99.355 128.896V126.544H101.819C102.859 126.544 103.435 126.928 103.435 127.712C103.435 128.528 102.891 128.896 101.739 128.896H99.355ZM107.933 122.208C107.901 123.536 107.853 125.312 107.725 126.528C107.549 128.064 107.037 128.864 106.237 128.864C106.077 128.864 105.965 128.848 105.869 128.832L105.773 129.952C105.933 130.016 106.189 130.064 106.461 130.064C107.853 130.064 108.653 129.072 108.941 126.944C109.069 125.92 109.133 124.64 109.197 123.36H111.949V130H113.245V122.208H107.933ZM122.613 125.968C122.613 123.744 121.157 122.112 119.029 122.112C116.805 122.112 115.189 123.76 115.189 126.112C115.189 128.496 116.821 130.096 119.125 130.096C120.693 130.096 121.669 129.504 122.341 128.64L121.429 127.872C120.949 128.464 120.213 128.912 119.173 128.912C117.701 128.912 116.677 127.952 116.501 126.496H122.581C122.581 126.4 122.613 126.176 122.613 125.968ZM119.013 123.296C120.293 123.296 121.125 124.16 121.317 125.44H116.533C116.773 124.112 117.765 123.296 119.013 123.296ZM124.513 130H125.809V126.752H130.017V130H131.313V122.208H130.017V125.632H125.809V122.208H124.513V130ZM133.747 130H134.995L139.379 124.208H139.411V130H140.707V122.208H139.475L135.075 128.128H135.043V122.208H133.747V130ZM145.858 122.208C143.81 122.208 142.818 123.216 142.818 124.768C142.818 125.92 143.458 126.768 144.658 127.072L142.53 130H144.002L146.018 127.2H148.002V130H149.298V122.208H145.858ZM148.002 126.08H145.778C144.61 126.08 144.13 125.552 144.13 124.768C144.13 123.824 144.69 123.328 145.842 123.328H148.002V126.08ZM7.552 156.64V162.064C6.768 162.528 5.584 162.736 4.704 162.736C3.184 162.736 2.464 162.16 2.464 160.112V156.64H1.072V160.32C1.072 162.768 2.032 164.032 4.336 164.032C5.376 164.032 6.736 163.728 7.552 163.296V168H8.944V156.64H7.552ZM14.8554 168.096C16.1194 168.096 17.0794 167.52 17.6394 166.592H17.6554V168H18.9034V160.208H17.6074V161.584L17.5754 161.6C17.0154 160.656 16.0074 160.112 14.8554 160.112C12.6474 160.112 11.0634 161.856 11.0634 164.16C11.0634 166.528 12.7114 168.096 14.8554 168.096ZM15.0474 166.912C13.4474 166.912 12.3754 165.728 12.3754 164.16C12.3754 162.432 13.5754 161.296 15.0474 161.296C16.5834 161.296 17.6554 162.56 17.6554 164.16C17.6554 165.808 16.4874 166.912 15.0474 166.912ZM23.0396 168H24.3356V161.36H26.9436V160.208H20.4316V161.36H23.0396V168ZM28.5598 168H31.4878C33.7118 168 34.5758 166.96 34.5758 165.408C34.5758 163.824 33.7758 162.8 31.5998 162.8H29.8558V160.208H28.5598V168ZM36.0478 168H37.3438V160.208H36.0478V168ZM29.8558 166.88V163.904H31.5518C32.6878 163.904 33.2638 164.4 33.2638 165.424C33.2638 166.368 32.6878 166.88 31.4878 166.88H29.8558Z" fill="black"/>
<circle cx="256" cy="48" r="10" fill="#0C4AB3"/>
<path fill-rule="evenodd" clip-rule="evenodd" d="M259.707 45.2929C260.098 45.6834 260.098 46.3166 259.707 46.7071L255.707 50.7071C255.317 51.0976 254.683 51.0976 254.293 50.7071L252.293 48.7071C251.902 48.3166 251.902 47.6834 252.293 47.2929C252.683 46.9024 253.317 46.9024 253.707 47.2929L255 48.5858L258.293 45.2929C258.683 44.9024 259.317 44.9024 259.707 45.2929Z" fill="white"/>
<circle cx="256" cy="85" r="10" fill="#0C4AB3"/>
<path fill-rule="evenodd" clip-rule="evenodd" d="M259.707 82.2929C260.098 82.6834 260.098 83.3166 259.707 83.7071L255.707 87.7071C255.317 88.0976 254.683 88.0976 254.293 87.7071L252.293 85.7071C251.902 85.3166 251.902 84.6834 252.293 84.2929C252.683 83.9024 253.317 83.9024 253.707 84.2929L255 85.5858L258.293 82.2929C258.683 81.9024 259.317 81.9024 259.707 82.2929Z" fill="white"/>
<circle cx="256" cy="122" r="10" fill="#0C4AB3"/>
<path fill-rule="evenodd" clip-rule="evenodd" d="M259.707 119.293C260.098 119.683 260.098 120.317 259.707 120.707L255.707 124.707C255.317 125.098 254.683 125.098 254.293 124.707L252.293 122.707C251.902 122.317 251.902 121.683 252.293 121.293C252.683 120.902 253.317 120.902 253.707 121.293L255 122.586L258.293 119.293C258.683 118.902 259.317 118.902 259.707 119.293Z" fill="white"/>
<circle cx="256" cy="159" r="10" fill="#0C4AB3"/>
<path fill-rule="evenodd" clip-rule="evenodd" d="M259.707 156.293C260.098 156.683 260.098 157.317 259.707 157.707L255.707 161.707C255.317 162.098 254.683 162.098 254.293 161.707L252.293 159.707C251.902 159.317 251.902 158.683 252.293 158.293C252.683 157.902 253.317 157.902 253.707 158.293L255 159.586L258.293 156.293C258.683 155.902 259.317 155.902 259.707 156.293Z" fill="white"/>
<circle cx="256" cy="11" r="10" fill="#0C4AB3"/>
<path fill-rule="evenodd" clip-rule="evenodd" d="M259.707 8.29289C260.098 8.68342 260.098 9.31658 259.707 9.70711L255.707 13.7071C255.317 14.0976 254.683 14.0976 254.293 13.7071L252.293 11.7071C251.902 11.3166 251.902 10.6834 252.293 10.2929C252.683 9.90237 253.317 9.90237 253.707 10.2929L255 11.5858L258.293 8.29289C258.683 7.90237 259.317 7.90237 259.707 8.29289Z" fill="white"/>
</svg>
